# Blender v2.82 (sub 7) OBJ File: 'BomberCone.blend'
# www.blender.org
mtllib BomberCone.mtl
o BomberCone.001_Cylinder.001
v 3.913410 -3.599580 -12.504066
v 3.913410 -7.597881 -10.529379
v 3.918964 -10.125459 -7.477346
v 3.842342 -11.303819 -3.532074
v 38.991119 -1.630955 -1.478047
v 3.842342 -11.303819 3.532074
v 38.991119 -1.630955 1.478047
v 3.918961 -10.125459 7.477346
v 3.913410 -7.113607 10.432244
v 3.998360 -3.626401 12.504251
v 3.913410 3.614817 12.532439
v 3.913410 7.535995 10.432244
v 3.918964 10.547845 7.477346
v 3.842342 12.605981 3.532074
v 38.991119 1.403091 1.478047
v 3.842342 12.605981 -3.532074
v 38.991119 1.403091 -1.478047
v 3.918964 10.547845 -7.477346
v 3.913414 7.535995 -10.432244
v 3.913410 3.358960 -12.522755
v 36.970001 -1.592888 -2.486198
v 19.985954 -2.561887 -8.559708
v 37.520958 -1.901452 -2.114281
v 19.997570 -6.605445 -6.504596
v 36.930481 -2.613390 -1.493085
v 19.963963 -8.616595 -2.455138
v 36.930481 -2.613390 1.491181
v 19.963963 -8.616595 2.455138
v 37.171753 -1.892287 2.176978
v 19.995434 -6.596939 6.498321
v 36.970001 -1.381084 2.476459
v 19.960293 -2.335979 8.453350
v 36.970001 1.596518 2.476459
v 19.960293 2.592288 8.453350
v 36.883087 2.239855 2.138554
v 19.867462 6.800512 6.566029
v 36.930489 2.400709 1.491181
v 19.900082 8.705701 2.491387
v 36.930489 2.400709 -1.493085
v 19.900082 8.705701 -2.491387
v 37.184883 2.084653 -2.124026
v 19.928009 6.896496 -6.476537
v 36.970001 1.370595 -2.486198
v 19.885250 2.329319 -8.527201
v -3.989933 -3.576382 12.505111
v -4.199173 -7.328279 10.432241
v -5.966911 -9.257579 7.477343
v -8.009464 -9.610223 3.532071
v -39.276878 -1.577468 1.478047
v -8.009464 -9.610223 -3.532077
v -39.276878 -1.577468 -1.478047
v -6.517895 -9.412483 -7.065317
v -4.023495 -7.598969 -10.525922
v -4.016918 -3.579075 -12.504067
v -4.016918 3.400145 -12.522758
v -4.035080 7.388350 -10.505862
v -3.999355 10.401596 -7.506837
v -4.128105 12.391310 -3.532077
v -39.276878 1.381429 -1.478047
v -4.128105 12.391310 3.532071
v -39.276878 1.381429 1.478047
v -3.995880 10.400740 7.477343
v -4.011814 7.377049 10.504481
v -3.973934 3.400145 12.517521
v -37.255768 -1.595756 2.486198
v -20.122080 -2.428800 8.559707
v -37.806721 -2.116123 2.114281
v -20.153225 -6.165711 6.566028
v -37.216248 -2.342992 1.493085
v -20.206949 -7.547321 2.455136
v -37.216248 -2.342992 -1.491181
v -20.206949 -7.547321 -2.455140
v -37.457512 -2.106959 -2.176978
v -20.153225 -6.240815 -6.566031
v -37.255768 -1.595756 -2.476459
v -20.246058 -2.550650 -8.453351
v -37.255768 1.381846 -2.476459
v -20.246058 2.377616 -8.453351
v -37.168850 2.025183 -2.138554
v -20.153225 6.585841 -6.566031
v -37.216251 2.336032 -1.491181
v -20.185844 8.491029 -2.491389
v -37.216248 2.336032 1.493085
v -20.185844 8.491029 2.491385
v -37.470650 2.029472 2.066475
v -20.213774 6.681825 6.476535
v -37.255768 1.381846 2.486198
v -20.122080 2.421842 8.559707
vt 0.000000 0.000000
vt 0.000000 0.000000
vt 0.000000 0.000000
vt 0.000000 0.000000
vt 0.000000 0.000000
vt 0.000000 0.000000
vt 0.000000 0.000000
vt 0.000000 0.000000
vt 0.000000 0.000000
vt 0.000000 0.000000
vt 0.000000 0.000000
vt 0.000000 0.000000
vt 0.000000 0.000000
vt 0.000000 0.000000
vt 0.000000 0.000000
vt 0.000000 0.000000
vt 0.000000 0.000000
vt 0.000000 0.000000
vt 0.000000 0.000000
vt 0.000000 0.000000
vt 0.000000 0.000000
vt 0.000000 0.000000
vt 0.000000 0.000000
vt 0.000000 0.000000
vt 0.000000 0.000000
vt 0.000000 0.000000
vt 0.000000 0.000000
vt 0.000000 0.000000
vt 0.000000 0.000000
vt 0.000000 0.000000
vt 0.000000 0.000000
vt 0.000000 0.000000
vt 0.000000 0.000000
vt 0.000000 0.000000
vt 0.000000 0.000000
vt 0.000000 0.000000
vt 0.000000 0.000000
vt 0.000000 0.000000
vt 0.000000 0.000000
vt 0.000000 0.000000
vt 0.000000 0.000000
vt 0.000000 0.000000
vt 0.000000 0.000000
vt 0.000000 0.000000
vt 0.000000 0.000000
vt 0.000000 0.000000
vt 0.000000 0.000000
vt 0.000000 0.000000
vt 0.000000 0.000000
vt 0.000000 0.000000
vt 0.000000 0.000000
vt 0.000000 0.000000
vt 0.000000 0.000000
vt 0.000000 0.000000
vt 0.000000 0.000000
vt 0.000000 0.000000
vt 0.000000 0.000000
vt 0.000000 0.000000
vt 0.000000 0.000000
vt 0.000000 0.000000
vt 0.000000 0.000000
vt 0.000000 0.000000
vt 0.000000 0.000000
vt 0.000000 0.000000
vt 0.000000 0.000000
vt 0.000000 0.000000
vt 0.000000 0.000000
vt 0.000000 0.000000
vt 0.000000 0.000000
vt 0.000000 0.000000
vt 0.000000 0.000000
vt 0.000000 0.000000
vt 0.000000 0.000000
vt 0.000000 0.000000
vt 0.000000 0.000000
vt 0.000000 0.000000
vt 0.000000 0.000000
vt 0.000000 0.000000
vt 0.000000 0.000000
vt 0.000000 0.000000
vt 0.000000 0.000000
vt 0.000000 0.000000
vt 0.000000 0.000000
vt 0.000000 0.000000
vt 0.000000 0.000000
vt 0.000000 0.000000
vt 0.000000 0.000000
vt 0.000000 0.000000
vn 0.4218 0.8673 -0.2644
vn 0.2398 0.4146 -0.8778
vn 0.2405 0.0032 -0.9706
vn 0.4235 0.8714 0.2475
vn 0.4358 0.9001 0.0000
vn 0.4275 0.4650 0.7753
vn 0.3402 -0.7053 0.6219
vn 0.4429 0.0000 0.8966
vn 0.4304 -0.9027 0.0000
vn 0.1644 -0.9864 0.0000
vn 0.3336 -0.9427 0.0000
vn 0.2462 -0.0005 0.9692
vn 0.3315 0.0000 0.9435
vn 0.2398 -0.4489 0.8608
vn 0.2011 0.6858 0.6994
vn 0.2397 0.4297 0.8705
vn 0.3272 0.4039 0.8543
vn 0.2360 0.9717 0.0000
vn 0.3472 0.9378 0.0000
vn 0.2346 0.8720 0.4296
vn 0.2331 0.8753 -0.4238
vn 0.3384 0.8625 -0.3764
vn 0.3793 -0.3517 0.8558
vn 0.3350 0.0082 -0.9422
vn 0.2029 -0.7540 -0.6248
vn 0.2424 -0.4344 -0.8675
vn 0.3260 -0.4280 -0.8430
vn 0.1986 -0.9112 -0.3608
vn 0.1934 -0.6869 0.7005
vn 0.1989 -0.9107 0.3619
vn 0.3242 -0.3909 0.8615
vn 0.3298 -0.8249 0.4591
vn 0.3357 0.8609 0.3824
vn 0.3258 0.3797 -0.8658
vn 0.3278 -0.8346 -0.4428
vn 0.2002 0.6860 -0.6996
vn 0.4209 0.3064 -0.8538
vn 0.4464 0.0000 -0.8949
vn 0.3689 -0.7657 -0.5269
vn 0.4242 -0.2804 -0.8611
vn 1.0000 0.0000 0.0000
vn -0.4046 0.8689 0.2850
vn -0.2373 0.4296 0.8713
vn -0.2378 -0.0007 0.9713
vn -0.3832 0.8214 -0.4225
vn -0.4203 0.9074 0.0000
vn -0.3913 0.4688 -0.7919
vn -0.3426 -0.9189 -0.1957
vn -0.4429 0.0000 -0.8966
vn -0.3482 -0.9374 0.0000
vn -0.1668 -0.9860 0.0000
vn -0.2926 -0.9562 0.0000
vn -0.2427 -0.0015 -0.9701
vn -0.3315 0.0000 -0.9435
vn -0.2464 -0.4366 -0.8653
vn -0.2038 0.6918 -0.6927
vn -0.2404 0.4192 -0.8755
vn -0.3272 0.4039 -0.8543
vn -0.2360 0.9717 0.0000
vn -0.3399 0.9405 0.0000
vn -0.2354 0.8730 -0.4271
vn -0.2335 0.8757 0.4227
vn -0.3321 0.8633 0.3801
vn -0.4206 -0.3293 -0.8454
vn -0.3341 0.0000 0.9425
vn -0.2051 -0.7588 0.6181
vn -0.2413 -0.4571 0.8560
vn -0.3162 -0.4274 0.8470
vn -0.2214 -0.9235 0.3133
vn -0.2063 -0.7977 -0.5667
vn -0.1794 -0.9673 0.1794
vn -0.3189 -0.4311 -0.8441
vn -0.2927 -0.9136 -0.2823
vn -0.3326 0.8515 -0.4053
vn -0.3274 0.4130 0.8499
vn -0.2881 -0.9161 0.2787
vn -0.2017 0.6935 0.6916
vn -0.4099 0.3964 0.8215
vn -0.4464 0.0000 0.8949
vn -0.3483 -0.9373 0.0113
vn -0.4416 -0.1631 0.8823
vn -1.0000 0.0000 0.0000
vn -0.1088 -0.9733 -0.2019
vn -0.0447 -0.8233 -0.5659
vn -0.0007 -0.4422 -0.8969
vn -0.0000 -0.0027 -1.0000
vn 0.0011 0.4494 -0.8933
vn -0.0084 0.7029 -0.7112
vn -0.0194 0.8901 -0.4554
vn -0.0269 0.9996 0.0000
vn -0.0203 0.8893 0.4569
vn -0.0104 0.7039 0.7102
vn -0.0077 0.4619 0.8869
vn -0.0009 -0.0029 1.0000
vn 0.0051 -0.4970 0.8677
vn -0.0277 -0.7628 0.6460
vn -0.1142 -0.9691 0.2187
vn -0.1415 -0.9899 0.0000
vn -0.1764 -0.9758 -0.1291
vn -0.2266 -0.9274 -0.2977
usemtl None
s off
f 41/1/1 39/2/1 17/3/1
f 19/4/2 42/5/2 44/6/2 20/7/2
f 44/6/3 22/8/3 1/9/3 20/7/3
f 35/10/4 15/11/4 37/12/4
f 37/12/5 15/11/5 17/3/5 39/2/5
f 33/13/6 15/11/6 35/10/6
f 29/14/7 27/15/7 7/16/7
f 33/13/8 31/17/8 7/16/8 15/11/8
f 25/18/9 5/19/9 7/16/9 27/15/9
f 4/20/10 26/21/10 28/22/10 6/23/10
f 26/21/11 25/18/11 27/15/11 28/22/11
f 10/24/12 32/25/12 34/26/12 11/27/12
f 32/25/13 31/17/13 33/13/13 34/26/13
f 9/28/14 30/29/14 32/25/14 10/24/14
f 12/30/15 36/31/15 13/32/15
f 11/27/16 34/26/16 36/31/16 12/30/16
f 34/26/17 33/13/17 35/10/17 36/31/17
f 14/33/18 38/34/18 40/35/18 16/36/18
f 38/34/19 37/12/19 39/2/19 40/35/19
f 14/33/20 13/32/20 36/31/20 38/34/20
f 18/37/21 16/36/21 40/35/21 42/5/21
f 42/5/22 40/35/22 39/2/22 41/1/22
f 29/14/23 7/16/23 31/17/23
f 43/38/24 21/39/24 22/8/24 44/6/24
f 2/40/25 24/41/25 3/42/25
f 2/40/26 1/9/26 22/8/26 24/41/26
f 24/41/27 22/8/27 21/39/27 23/43/27
f 26/21/28 4/20/28 3/42/28 24/41/28
f 9/28/29 8/44/29 30/29/29
f 6/23/30 28/22/30 30/29/30 8/44/30
f 32/25/31 30/29/31 29/14/31 31/17/31
f 28/22/32 27/15/32 29/14/32 30/29/32
f 38/34/33 36/31/33 35/10/33 37/12/33
f 42/5/34 41/1/34 43/38/34 44/6/34
f 24/41/35 23/43/35 25/18/35 26/21/35
f 42/5/36 19/4/36 18/37/36
f 41/1/37 17/3/37 43/38/37
f 43/38/38 17/3/38 5/19/38 21/39/38
f 23/43/39 5/19/39 25/18/39
f 23/43/40 21/39/40 5/19/40
f 15/11/41 7/16/41 5/19/41 17/3/41
f 85/45/42 83/46/42 61/47/42
f 63/48/43 86/49/43 88/50/43 64/51/43
f 88/50/44 66/52/44 45/53/44 64/51/44
f 79/54/45 59/55/45 81/56/45
f 81/56/46 59/55/46 61/47/46 83/46/46
f 77/57/47 59/55/47 79/54/47
f 73/58/48 71/59/48 51/60/48
f 77/57/49 75/61/49 51/60/49 59/55/49
f 69/62/50 49/63/50 51/60/50 71/59/50
f 48/64/51 70/65/51 72/66/51 50/67/51
f 70/65/52 69/62/52 71/59/52 72/66/52
f 54/68/53 76/69/53 78/70/53 55/71/53
f 76/69/54 75/61/54 77/57/54 78/70/54
f 53/72/55 74/73/55 76/69/55 54/68/55
f 56/74/56 80/75/56 57/76/56
f 55/71/57 78/70/57 80/75/57 56/74/57
f 78/70/58 77/57/58 79/54/58 80/75/58
f 58/77/59 82/78/59 84/79/59 60/80/59
f 82/78/60 81/56/60 83/46/60 84/79/60
f 58/77/61 57/76/61 80/75/61 82/78/61
f 62/81/62 60/80/62 84/79/62 86/49/62
f 86/49/63 84/79/63 83/46/63 85/45/63
f 73/58/64 51/60/64 75/61/64
f 87/82/65 65/83/65 66/52/65 88/50/65
f 46/84/66 68/85/66 47/86/66
f 46/84/67 45/53/67 66/52/67 68/85/67
f 68/85/68 66/52/68 65/83/68 67/87/68
f 70/65/69 47/86/69 68/85/69
f 53/72/70 52/88/70 74/73/70
f 70/65/71 48/64/71 47/86/71
f 76/69/72 74/73/72 73/58/72 75/61/72
f 72/66/73 71/59/73 73/58/73 74/73/73
f 82/78/74 80/75/74 79/54/74 81/56/74
f 86/49/75 85/45/75 87/82/75 88/50/75
f 68/85/76 67/87/76 69/62/76 70/65/76
f 86/49/77 63/48/77 62/81/77
f 85/45/78 61/47/78 87/82/78
f 87/82/79 61/47/79 49/63/79 65/83/79
f 67/87/80 49/63/80 69/62/80
f 67/87/81 65/83/81 49/63/81
f 59/55/82 51/60/82 49/63/82 61/47/82
f 3/42/83 4/20/83 50/67/83 52/88/83
f 2/40/84 3/42/84 52/88/84 53/72/84
f 1/9/85 2/40/85 53/72/85 54/68/85
f 20/7/86 1/9/86 54/68/86 55/71/86
f 19/4/87 20/7/87 55/71/87 56/74/87
f 18/37/88 19/4/88 56/74/88 57/76/88
f 16/36/89 18/37/89 57/76/89 58/77/89
f 14/33/90 16/36/90 58/77/90 60/80/90
f 13/32/91 14/33/91 60/80/91 62/81/91
f 12/30/92 13/32/92 62/81/92 63/48/92
f 12/30/93 63/48/93 64/51/93 11/27/93
f 11/27/94 64/51/94 45/53/94 10/24/94
f 9/28/95 10/24/95 45/53/95 46/84/95
f 8/44/96 9/28/96 46/84/96 47/86/96
f 6/23/97 8/44/97 47/86/97 48/64/97
f 4/20/98 6/23/98 48/64/98 50/67/98
f 72/66/99 52/88/99 50/67/99
f 74/73/100 52/88/100 72/66/100
