# Blender v2.82 (sub 7) OBJ File: 'BomberCone.blend'
# www.blender.org
mtllib BomberCone.mtl
o BomberCone_Cylinder
v 0.105743 11.038897 -12.417875
v 0.105743 7.286974 -10.432244
v 0.111298 4.275124 -7.477346
v 0.034676 2.947630 -3.532074
v 35.183449 13.037786 -1.478047
v 0.034676 2.947630 3.532074
v 35.183449 13.037786 1.478047
v 0.111298 4.275124 7.477346
v 0.105743 7.286974 10.432244
v 0.105743 11.038897 12.417875
v 0.105743 18.015398 12.532438
v 0.105743 21.936577 10.432244
v 0.111298 24.948427 7.477346
v 0.034676 27.006563 3.532074
v 35.183449 15.996683 1.478047
v 0.034676 27.006563 -3.532074
v 35.183449 15.996683 -1.478047
v 0.111298 24.948427 -7.477346
v 0.105743 21.936577 -10.432244
v 0.105743 18.015398 -12.532438
v 33.162338 13.019497 -2.486198
v 16.028650 12.186454 -8.559709
v 33.713291 12.499130 -2.114281
v 16.059795 8.022455 -6.566029
v 33.122818 12.272262 -1.493085
v 16.156296 5.943340 -2.455138
v 33.122818 12.272262 1.491181
v 16.156296 5.943340 2.455138
v 33.364082 12.508294 2.176978
v 16.059795 8.022455 6.566029
v 33.162338 13.019497 2.476459
v 16.152628 12.064603 8.453349
v 33.162338 15.997099 2.476459
v 16.152628 16.992868 8.453349
v 33.075420 16.640436 2.138554
v 16.059795 21.201094 6.566029
v 33.122822 16.951286 1.491181
v 16.092415 23.106281 2.491387
v 33.122822 16.951286 -1.493085
v 16.092415 23.106281 -2.491387
v 33.377220 16.644726 -2.066475
v 16.120344 21.297077 -6.476537
v 33.162338 15.997099 -2.486198
v 16.028650 17.037094 -8.559709
vt 0.000000 0.000000
vt 0.000000 0.000000
vt 0.000000 0.000000
vt 0.000000 0.000000
vt 0.000000 0.000000
vt 0.000000 0.000000
vt 0.000000 0.000000
vt 0.000000 0.000000
vt 0.000000 0.000000
vt 0.000000 0.000000
vt 0.000000 0.000000
vt 0.000000 0.000000
vt 0.000000 0.000000
vt 0.000000 0.000000
vt 0.000000 0.000000
vt 0.000000 0.000000
vt 0.000000 0.000000
vt 0.000000 0.000000
vt 0.000000 0.000000
vt 0.000000 0.000000
vt 0.000000 0.000000
vt 0.000000 0.000000
vt 0.000000 0.000000
vt 0.000000 0.000000
vt 0.000000 0.000000
vt 0.000000 0.000000
vt 0.000000 0.000000
vt 0.000000 0.000000
vt 0.000000 0.000000
vt 0.000000 0.000000
vt 0.000000 0.000000
vt 0.000000 0.000000
vt 0.000000 0.000000
vt 0.000000 0.000000
vt 0.000000 0.000000
vt 0.000000 0.000000
vt 0.000000 0.000000
vt 0.000000 0.000000
vt 0.000000 0.000000
vt 0.000000 0.000000
vt 0.000000 0.000000
vt 0.000000 0.000000
vt 0.000000 0.000000
vt 0.000000 0.000000
vn 0.4046 0.8689 -0.2850
vn 0.2373 0.4402 -0.8660
vn 0.2388 -0.0094 -0.9710
vn 0.3832 0.8214 0.4225
vn 0.4203 0.9074 0.0000
vn 0.3913 0.4688 0.7919
vn 0.3426 -0.9189 0.1957
vn 0.4429 0.0000 0.8966
vn 0.3482 -0.9374 0.0000
vn 0.1827 -0.9832 0.0000
vn 0.3495 -0.9369 0.0000
vn 0.2431 -0.0093 0.9700
vn 0.3315 0.0000 0.9435
vn 0.2366 -0.4346 0.8690
vn 0.2011 0.6858 0.6994
vn 0.2397 0.4297 0.8705
vn 0.3272 0.4039 0.8543
vn 0.2360 0.9717 0.0000
vn 0.3399 0.9405 0.0000
vn 0.2346 0.8720 0.4296
vn 0.2331 0.8753 -0.4238
vn 0.3321 0.8633 -0.3801
vn 0.4206 -0.3293 0.8454
vn 0.3341 0.0000 -0.9425
vn 0.2011 -0.6858 -0.6994
vn 0.2362 -0.4357 -0.8686
vn 0.3208 -0.3949 -0.8609
vn 0.2128 -0.8998 -0.3810
vn 0.2011 -0.6858 0.6994
vn 0.2128 -0.8998 0.3810
vn 0.3226 -0.4035 0.8562
vn 0.3321 -0.8534 0.4019
vn 0.3326 0.8515 0.4053
vn 0.3274 0.4130 -0.8499
vn 0.3293 -0.8619 -0.3856
vn 0.2002 0.6860 -0.6996
vn 0.4099 0.3964 -0.8215
vn 0.4464 0.0000 -0.8949
vn 0.3483 -0.9373 -0.0112
vn 0.4416 -0.1631 -0.8823
vn 1.0000 0.0000 0.0000
usemtl None
s off
f 41/1/1 39/2/1 17/3/1
f 19/4/2 42/5/2 44/6/2 20/7/2
f 44/6/3 22/8/3 1/9/3 20/7/3
f 35/10/4 15/11/4 37/12/4
f 37/12/5 15/11/5 17/3/5 39/2/5
f 33/13/6 15/11/6 35/10/6
f 29/14/7 27/15/7 7/16/7
f 33/13/8 31/17/8 7/16/8 15/11/8
f 25/18/9 5/19/9 7/16/9 27/15/9
f 4/20/10 26/21/10 28/22/10 6/23/10
f 26/21/11 25/18/11 27/15/11 28/22/11
f 10/24/12 32/25/12 34/26/12 11/27/12
f 32/25/13 31/17/13 33/13/13 34/26/13
f 9/28/14 30/29/14 32/25/14 10/24/14
f 12/30/15 36/31/15 13/32/15
f 11/27/16 34/26/16 36/31/16 12/30/16
f 34/26/17 33/13/17 35/10/17 36/31/17
f 14/33/18 38/34/18 40/35/18 16/36/18
f 38/34/19 37/12/19 39/2/19 40/35/19
f 14/33/20 13/32/20 36/31/20 38/34/20
f 18/37/21 16/36/21 40/35/21 42/5/21
f 42/5/22 40/35/22 39/2/22 41/1/22
f 29/14/23 7/16/23 31/17/23
f 43/38/24 21/39/24 22/8/24 44/6/24
f 2/40/25 24/41/25 3/42/25
f 2/40/26 1/9/26 22/8/26 24/41/26
f 24/41/27 22/8/27 21/39/27 23/43/27
f 26/21/28 4/20/28 3/42/28 24/41/28
f 9/28/29 8/44/29 30/29/29
f 6/23/30 28/22/30 30/29/30 8/44/30
f 32/25/31 30/29/31 29/14/31 31/17/31
f 28/22/32 27/15/32 29/14/32 30/29/32
f 38/34/33 36/31/33 35/10/33 37/12/33
f 42/5/34 41/1/34 43/38/34 44/6/34
f 24/41/35 23/43/35 25/18/35 26/21/35
f 42/5/36 19/4/36 18/37/36
f 41/1/37 17/3/37 43/38/37
f 43/38/38 17/3/38 5/19/38 21/39/38
f 23/43/39 5/19/39 25/18/39
f 23/43/40 21/39/40 5/19/40
f 15/11/41 7/16/41 5/19/41 17/3/41
