# Blender v2.82 (sub 7) OBJ File: ''
# www.blender.org
mtllib DreadnoughtBackCone.mtl
o Cylinder
v 1.527075 1.506745 -24.540447
v 3.598997 12.259814 12.500001
v 7.327633 10.242564 12.500000
v 10.310905 7.264216 12.500000
v 12.259813 3.530630 12.500000
v 12.259813 -3.530631 12.500000
v 10.310905 -7.264217 12.500000
v 7.327633 -10.242566 12.500000
v 1.527075 -1.506743 -24.540447
v 3.598997 -12.259816 12.499999
v -1.527075 -1.506743 -24.540447
v -3.598997 -12.259816 12.499999
v -7.327633 -10.242566 12.500000
v -10.310905 -7.264217 12.500000
v -12.259813 -3.530631 12.500000
v -12.259813 3.530630 12.500000
v -10.310905 7.264216 12.500000
v -7.327633 10.242564 12.500000
v -1.527075 1.506745 -24.540447
v -3.598997 12.259814 12.500001
v 3.598997 9.514337 1.398946
v 7.499670 6.464303 1.414127
v 9.480441 3.530630 1.451157
v 9.480441 -3.530630 1.451157
v 7.499670 -6.464303 1.414127
v 3.598997 -9.514337 1.398945
v -3.598997 -9.514337 1.398945
v -7.499670 -6.464303 1.414127
v -9.480441 -3.530630 1.451157
v -9.480441 3.530630 1.451157
v -7.499670 6.464303 1.414127
v -3.598997 9.514337 1.398946
vt 0.000000 0.000000
vt 0.000000 0.000000
vt 0.000000 0.000000
vt 0.000000 0.000000
vt 0.000000 0.000000
vt 0.000000 0.000000
vt 0.000000 0.000000
vt 0.000000 0.000000
vt 0.000000 0.000000
vt 0.000000 0.000000
vt 0.000000 0.000000
vt 0.000000 0.000000
vt 0.000000 0.000000
vt 0.000000 0.000000
vt 0.000000 0.000000
vt 0.000000 0.000000
vt 0.000000 0.000000
vt 0.000000 0.000000
vt 0.000000 0.000000
vt 0.000000 0.000000
vt 0.000000 0.000000
vt 0.000000 0.000000
vt 0.000000 0.000000
vt 0.000000 0.000000
vt 0.000000 0.000000
vt 0.000000 0.000000
vt 0.000000 0.000000
vt 0.000000 0.000000
vt 0.000000 0.000000
vt 0.000000 0.000000
vt 0.000000 0.000000
vt 0.000000 0.000000
vn 0.0000 0.9708 -0.2401
vn 0.5919 0.7556 -0.2805
vn 0.5382 0.8097 -0.2339
vn 0.9698 0.0000 -0.2440
vn 0.7960 -0.5339 -0.2852
vn 0.8390 -0.4932 -0.2297
vn 0.5382 -0.8097 -0.2339
vn 0.0000 -0.9708 -0.2401
vn -0.5382 -0.8097 -0.2339
vn -0.9698 0.0000 -0.2440
vn -0.6885 -0.6896 -0.2244
vn -0.6885 0.6896 -0.2244
vn 0.6885 0.6896 -0.2244
vn -0.8390 -0.4932 -0.2297
vn 0.6885 -0.6896 -0.2244
vn -0.5382 0.8097 -0.2339
vn -0.7960 -0.5339 -0.2852
vn 0.9562 0.0000 -0.2926
vn -0.8390 0.4932 -0.2297
vn 0.8390 0.4932 -0.2297
vn -0.5919 -0.7556 -0.2805
vn 0.0000 -0.9555 -0.2950
vn -0.5919 0.7556 -0.2805
vn 0.5919 -0.7556 -0.2805
vn 0.0000 0.0000 -1.0000
vn -0.9562 0.0000 -0.2926
vn -0.7960 0.5339 -0.2852
vn 0.7960 0.5339 -0.2852
vn 0.0000 0.9555 -0.2950
usemtl None
s off
f 21/1/1 32/2/1 20/3/1 2/4/1
f 1/5/2 21/1/2 22/6/2
f 21/1/3 2/4/3 3/7/3 22/6/3
f 24/8/4 23/9/4 5/10/4 6/11/4
f 24/8/5 25/12/5 9/13/5
f 25/12/6 24/8/6 6/11/6 7/14/6
f 25/12/7 8/15/7 10/16/7 26/17/7
f 26/17/8 10/16/8 12/18/8 27/19/8
f 27/19/9 12/18/9 13/20/9 28/21/9
f 29/22/10 15/23/10 16/24/10 30/25/10
f 14/26/11 28/21/11 13/20/11
f 17/27/12 18/28/12 31/29/12
f 4/30/13 22/6/13 3/7/13
f 14/26/14 15/23/14 29/22/14 28/21/14
f 7/14/15 8/15/15 25/12/15
f 31/29/16 18/28/16 20/3/16 32/2/16
f 11/31/17 28/21/17 29/22/17
f 23/9/18 24/8/18 9/13/18 1/5/18
f 16/24/19 17/27/19 31/29/19 30/25/19
f 4/30/20 5/10/20 23/9/20 22/6/20
f 11/31/21 27/19/21 28/21/21
f 9/13/22 26/17/22 27/19/22 11/31/22
f 19/32/23 31/29/23 32/2/23
f 26/17/24 9/13/24 25/12/24
f 11/31/25 19/32/25 1/5/25 9/13/25
f 29/22/26 30/25/26 19/32/26 11/31/26
f 30/25/27 31/29/27 19/32/27
f 1/5/28 22/6/28 23/9/28
f 1/5/29 19/32/29 32/2/29 21/1/29
