# MagicaVoxel @ Ephtracy

# group
g Roboter-2

# material
mtllib Roboter-2.mtl
usemtl palette

# normals
vn -1 0 0
vn 1 0 0
vn 0 0 1
vn 0 0 -1
vn 0 -1 0
vn 0 1 0

# texcoords
vt 0.513672 0.5
vt 0.654297 0.5
vt 0.677734 0.5
vt 0.990234 0.5

# verts
v -5 2 2
v -5 2 -2
v -5 3 2
v -5 3 -2
v -4 2 3
v -4 2 2
v -4 2 -2
v -4 2 -3
v -4 3 3
v -4 3 2
v -4 3 1
v -4 3 -1
v -4 3 -2
v -4 3 -3
v -4 4 2
v -4 4 1
v -4 4 -1
v -4 4 -2
v -4 5 2
v -4 5 1
v -4 5 -1
v -4 5 -2
v -4 6 2
v -4 6 1
v -4 6 -0
v -4 6 -1
v -4 6 -2
v -4 7 1
v -4 7 -0
v -4 7 -1
v -3 2 4
v -3 2 3
v -3 2 -3
v -3 2 -4
v -3 3 4
v -3 3 3
v -3 3 2
v -3 3 1
v -3 3 -1
v -3 3 -3
v -3 3 -4
v -3 4 2
v -3 4 1
v -3 4 -1
v -3 4 -2
v -3 5 2
v -3 5 -2
v -3 5 -3
v -3 5 -4
v -3 6 3
v -3 6 2
v -3 6 1
v -3 6 -1
v -3 6 -2
v -3 6 -3
v -3 7 3
v -3 7 2
v -3 7 1
v -3 7 -0
v -3 7 -1
v -3 7 -2
v -3 7 -3
v -3 7 -4
v -3 8 2
v -3 8 -2
v -2 1 1
v -2 1 -1
v -2 2 1
v -2 2 -1
v -2 4 4
v -2 4 3
v -2 4 -3
v -2 4 -4
v -2 5 -3
v -2 5 -4
v -2 6 4
v -2 6 3
v -2 7 3
v -2 7 2
v -2 7 -2
v -2 7 -3
v -2 7 -4
v -2 8 3
v -2 8 2
v -2 8 1
v -2 8 -1
v -2 8 -2
v -2 8 -3
v -2 8 -4
v -2 9 1
v -2 9 -1
v -1 0 1
v -1 0 -1
v -1 1 2
v -1 1 1
v -1 1 -1
v -1 1 -2
v -1 2 2
v -1 2 1
v -1 2 -1
v -1 2 -2
v -1 3 4
v -1 3 3
v -1 3 -3
v -1 3 -4
v -1 4 4
v -1 4 3
v -1 4 -3
v -1 4 -4
v -1 6 4
v -1 6 3
v -1 7 4
v -1 7 3
v -1 8 2
v -1 8 1
v -1 8 -1
v -1 8 -2
v -1 9 2
v -1 9 1
v -1 9 -1
v -1 9 -2
v 0 5 -3
v 0 5 -4
v 0 7 -3
v 0 7 -4
v -2 5 -3
v -2 5 -4
v -2 7 -3
v -2 7 -4
v 0 7 -3
v 0 7 -4
v 0 8 -3
v 0 8 -4
v 1 0 1
v 1 0 -1
v 1 1 2
v 1 1 1
v 1 1 -1
v 1 1 -2
v 1 2 2
v 1 2 1
v 1 2 -1
v 1 2 -2
v 1 3 4
v 1 3 3
v 1 4 4
v 1 4 3
v 1 6 4
v 1 6 3
v 1 6 -3
v 1 6 -4
v 1 7 4
v 1 7 3
v 1 7 -3
v 1 7 -4
v 1 8 2
v 1 8 1
v 1 8 -1
v 1 8 -2
v 1 9 2
v 1 9 1
v 1 9 -1
v 1 9 -2
v 2 1 1
v 2 1 -1
v 2 2 1
v 2 2 -1
v 2 3 -3
v 2 3 -4
v 2 4 4
v 2 4 3
v 2 4 -3
v 2 4 -4
v 2 5 -3
v 2 5 -4
v 2 6 4
v 2 6 3
v 2 6 -3
v 2 6 -4
v 2 7 3
v 2 7 2
v 2 7 -2
v 2 7 -3
v 2 8 3
v 2 8 2
v 2 8 1
v 2 8 -1
v 2 8 -2
v 2 8 -3
v 2 9 1
v 2 9 -1
v 3 2 4
v 3 2 3
v 3 2 -3
v 3 2 -4
v 3 3 4
v 3 3 3
v 3 3 1
v 3 3 -1
v 3 3 -3
v 3 3 -4
v 3 4 2
v 3 4 1
v 3 4 -1
v 3 4 -2
v 3 4 -3
v 3 4 -4
v 3 5 2
v 3 5 -2
v 3 5 -3
v 3 5 -4
v 3 6 3
v 3 6 2
v 3 6 1
v 3 6 -1
v 3 6 -2
v 3 7 3
v 3 7 2
v 3 7 1
v 3 7 -0
v 3 7 -1
v 3 7 -2
v 3 7 -3
v 3 8 2
v 3 8 -2
v 4 2 3
v 4 2 2
v 4 2 -2
v 4 2 -3
v 4 3 3
v 4 3 2
v 4 3 1
v 4 3 -1
v 4 3 -2
v 4 3 -3
v 4 4 2
v 4 4 1
v 4 4 -1
v 4 4 -2
v 4 5 2
v 4 5 1
v 4 5 -1
v 4 5 -2
v 4 6 2
v 4 6 1
v 4 6 -0
v 4 6 -1
v 4 6 -2
v 4 7 1
v 4 7 -0
v 4 7 -1
v 5 2 2
v 5 2 -1
v 5 2 -2
v 5 3 2
v 5 3 -1
v 5 3 -2
v -3 2 4
v -3 3 4
v -2 4 4
v -2 6 4
v -1 3 4
v -1 4 4
v -1 6 4
v -1 7 4
v 1 3 4
v 1 4 4
v 1 6 4
v 1 7 4
v 2 4 4
v 2 6 4
v 3 2 4
v 3 3 4
v -4 2 3
v -4 3 3
v -3 2 3
v -3 3 3
v -3 6 3
v -3 7 3
v -2 4 3
v -2 6 3
v -2 7 3
v -2 8 3
v -1 3 3
v -1 4 3
v -1 6 3
v -1 7 3
v 1 3 3
v 1 4 3
v 1 6 3
v 1 7 3
v 2 4 3
v 2 6 3
v 2 7 3
v 2 8 3
v 3 2 3
v 3 3 3
v 3 6 3
v 3 7 3
v 4 2 3
v 4 3 3
v -5 2 2
v -5 3 2
v -4 2 2
v -4 3 2
v -4 4 2
v -4 5 2
v -4 6 2
v -3 4 2
v -3 5 2
v -3 6 2
v -3 7 2
v -3 8 2
v -2 7 2
v -2 8 2
v -1 1 2
v -1 2 2
v -1 8 2
v -1 9 2
v 1 1 2
v 1 2 2
v 1 8 2
v 1 9 2
v 2 7 2
v 2 8 2
v 3 4 2
v 3 5 2
v 3 6 2
v 3 7 2
v 3 8 2
v 4 2 2
v 4 3 2
v 4 4 2
v 4 5 2
v 4 6 2
v 5 2 2
v 5 3 2
v -4 3 1
v -4 4 1
v -4 6 1
v -4 7 1
v -3 3 1
v -3 4 1
v -3 6 1
v -3 7 1
v -2 1 1
v -2 2 1
v -2 8 1
v -2 9 1
v -1 0 1
v -1 1 1
v -1 2 1
v -1 8 1
v -1 9 1
v 1 0 1
v 1 1 1
v 1 2 1
v 1 8 1
v 1 9 1
v 2 1 1
v 2 2 1
v 2 8 1
v 2 9 1
v 3 3 1
v 3 4 1
v 3 6 1
v 3 7 1
v 4 3 1
v 4 4 1
v 4 6 1
v 4 7 1
v -4 3 -1
v -4 4 -1
v -4 6 -1
v -4 7 -1
v -3 3 -1
v -3 4 -1
v -3 6 -1
v -3 7 -1
v -2 1 -1
v -2 2 -1
v -2 8 -1
v -2 9 -1
v -1 0 -1
v -1 1 -1
v -1 2 -1
v -1 8 -1
v -1 9 -1
v 1 0 -1
v 1 1 -1
v 1 2 -1
v 1 8 -1
v 1 9 -1
v 2 1 -1
v 2 2 -1
v 2 8 -1
v 2 9 -1
v 3 3 -1
v 3 4 -1
v 3 6 -1
v 3 7 -1
v 4 3 -1
v 4 4 -1
v 4 6 -1
v 4 7 -1
v -5 2 -2
v -5 3 -2
v -4 2 -2
v -4 3 -2
v -4 4 -2
v -4 5 -2
v -4 6 -2
v -3 4 -2
v -3 5 -2
v -3 6 -2
v -3 7 -2
v -3 8 -2
v -2 7 -2
v -2 8 -2
v -1 1 -2
v -1 2 -2
v -1 8 -2
v -1 9 -2
v 1 1 -2
v 1 2 -2
v 1 8 -2
v 1 9 -2
v 2 7 -2
v 2 8 -2
v 3 4 -2
v 3 5 -2
v 3 6 -2
v 3 7 -2
v 3 8 -2
v 4 2 -2
v 4 3 -2
v 4 4 -2
v 4 5 -2
v 4 6 -2
v 5 2 -2
v 5 3 -2
v -4 2 -3
v -4 3 -3
v -3 2 -3
v -3 3 -3
v -3 5 -3
v -2 4 -3
v -2 5 -3
v -2 7 -3
v -1 3 -3
v -1 4 -3
v 0 5 -3
v 0 7 -3
v 0 8 -3
v 1 6 -3
v 1 7 -3
v 2 3 -3
v 2 4 -3
v 2 5 -3
v 2 6 -3
v 2 7 -3
v 2 8 -3
v 3 2 -3
v 3 3 -3
v 3 4 -3
v 3 5 -3
v 3 7 -3
v 4 2 -3
v 4 3 -3
v -3 2 -4
v -3 3 -4
v -3 5 -4
v -3 7 -4
v -2 4 -4
v -2 5 -4
v -2 7 -4
v -2 8 -4
v -1 3 -4
v -1 4 -4
v 0 5 -4
v 0 7 -4
v 0 8 -4
v 1 3 -4
v 1 4 -4
v 1 5 -4
v 1 6 -4
v 1 7 -4
v 2 3 -4
v 2 4 -4
v 2 5 -4
v 2 6 -4
v 3 2 -4
v 3 3 -4
v 3 4 -4
v 3 5 -4
v -1 0 1
v 1 0 1
v -1 0 -1
v 1 0 -1
v -1 1 2
v 1 1 2
v -2 1 1
v -1 1 1
v 1 1 1
v 2 1 1
v -2 1 -1
v -1 1 -1
v 1 1 -1
v 2 1 -1
v -1 1 -2
v 1 1 -2
v -3 2 4
v 3 2 4
v -4 2 3
v -3 2 3
v 3 2 3
v 4 2 3
v -5 2 2
v -4 2 2
v -3 2 2
v -1 2 2
v 1 2 2
v 4 2 2
v 5 2 2
v -2 2 1
v -1 2 1
v 1 2 1
v 2 2 1
v -2 2 -1
v -1 2 -1
v 1 2 -1
v 2 2 -1
v 4 2 -1
v 5 2 -1
v -5 2 -2
v -4 2 -2
v -1 2 -2
v 1 2 -2
v 4 2 -2
v 5 2 -2
v -4 2 -3
v -3 2 -3
v 3 2 -3
v 4 2 -3
v -3 2 -4
v 3 2 -4
v -2 4 4
v -1 4 4
v 1 4 4
v 2 4 4
v -2 4 3
v -1 4 3
v 1 4 3
v 2 4 3
v -4 4 2
v -3 4 2
v 3 4 2
v 4 4 2
v -4 4 1
v -3 4 1
v 3 4 1
v 4 4 1
v -4 4 -1
v -3 4 -1
v 3 4 -1
v 4 4 -1
v -4 4 -2
v -3 4 -2
v 3 4 -2
v 4 4 -2
v -2 4 -3
v -1 4 -3
v 2 4 -3
v 3 4 -3
v -2 4 -4
v -1 4 -4
v 2 4 -4
v 3 4 -4
v -3 5 -3
v -2 5 -3
v -3 5 -4
v -2 5 -4
v -2 7 -3
v 0 7 -3
v -2 7 -4
v 0 7 -4
v -3 3 4
v -1 3 4
v 1 3 4
v 3 3 4
v -4 3 3
v -3 3 3
v -1 3 3
v 1 3 3
v 3 3 3
v 4 3 3
v -5 3 2
v -4 3 2
v -3 3 2
v 4 3 2
v 5 3 2
v -4 3 1
v -3 3 1
v 3 3 1
v 4 3 1
v -4 3 -1
v -3 3 -1
v 3 3 -1
v 4 3 -1
v 5 3 -1
v -5 3 -2
v -4 3 -2
v 4 3 -2
v 5 3 -2
v -4 3 -3
v -3 3 -3
v -1 3 -3
v 2 3 -3
v 3 3 -3
v 4 3 -3
v -3 3 -4
v -1 3 -4
v 2 3 -4
v 3 3 -4
v -2 5 -3
v 0 5 -3
v 2 5 -3
v 3 5 -3
v -2 5 -4
v 0 5 -4
v 2 5 -4
v 3 5 -4
v -2 6 4
v -1 6 4
v 1 6 4
v 2 6 4
v -2 6 3
v -1 6 3
v 1 6 3
v 2 6 3
v -4 6 2
v -3 6 2
v 3 6 2
v 4 6 2
v -4 6 1
v -3 6 1
v 3 6 1
v 4 6 1
v -4 6 -1
v -3 6 -1
v 3 6 -1
v 4 6 -1
v -4 6 -2
v -3 6 -2
v 3 6 -2
v 4 6 -2
v 1 6 -3
v 2 6 -3
v 1 6 -4
v 2 6 -4
v -1 7 4
v 1 7 4
v -3 7 3
v -2 7 3
v -1 7 3
v 1 7 3
v 2 7 3
v 3 7 3
v -3 7 2
v -2 7 2
v 2 7 2
v 3 7 2
v -4 7 1
v -3 7 1
v 3 7 1
v 4 7 1
v -4 7 -0
v -3 7 -0
v 3 7 -0
v 4 7 -0
v -4 7 -1
v -3 7 -1
v 3 7 -1
v 4 7 -1
v -3 7 -2
v -2 7 -2
v 2 7 -2
v 3 7 -2
v -3 7 -3
v -2 7 -3
v 0 7 -3
v 1 7 -3
v 2 7 -3
v 3 7 -3
v -3 7 -4
v -2 7 -4
v 0 7 -4
v 1 7 -4
v -2 8 3
v 2 8 3
v -3 8 2
v -2 8 2
v -1 8 2
v 1 8 2
v 2 8 2
v 3 8 2
v -2 8 1
v -1 8 1
v 1 8 1
v 2 8 1
v -2 8 -1
v -1 8 -1
v 1 8 -1
v 2 8 -1
v -3 8 -2
v -2 8 -2
v -1 8 -2
v 1 8 -2
v 2 8 -2
v 3 8 -2
v -2 8 -3
v 0 8 -3
v 2 8 -3
v -2 8 -4
v 0 8 -4
v -1 9 2
v 1 9 2
v -2 9 1
v -1 9 1
v 1 9 1
v 2 9 1
v -2 9 -1
v -1 9 -1
v 1 9 -1
v 2 9 -1
v -1 9 -2
v 1 9 -2

# faces
f 3/3/1 2/3/1 1/3/1
f 4/3/1 2/3/1 3/3/1
f 9/2/1 6/2/1 5/2/1
f 10/2/1 6/2/1 9/2/1
f 13/3/1 8/3/1 7/3/1
f 14/3/1 8/3/1 13/3/1
f 16/3/1 12/3/1 11/3/1
f 17/3/1 12/3/1 16/3/1
f 19/3/1 16/3/1 15/3/1
f 19/3/1 17/3/1 16/3/1
f 20/3/1 17/3/1 19/3/1
f 21/2/1 18/2/1 17/2/1
f 21/3/1 17/3/1 20/3/1
f 22/2/1 18/2/1 21/2/1
f 23/2/1 20/2/1 19/2/1
f 24/3/1 21/3/1 20/3/1
f 24/2/1 20/2/1 23/2/1
f 24/3/1 22/3/1 21/3/1
f 25/3/1 22/3/1 24/3/1
f 26/3/1 22/3/1 25/3/1
f 27/3/1 22/3/1 26/3/1
f 28/3/1 25/3/1 24/3/1
f 29/2/1 26/2/1 25/2/1
f 29/3/1 25/3/1 28/3/1
f 30/2/1 26/2/1 29/2/1
f 35/3/1 32/3/1 31/3/1
f 36/3/1 32/3/1 35/3/1
f 40/3/1 34/3/1 33/3/1
f 41/3/1 34/3/1 40/3/1
f 42/3/1 38/3/1 37/3/1
f 42/3/1 37/3/1 36/3/1
f 43/3/1 38/3/1 42/3/1
f 44/3/1 40/3/1 39/3/1
f 45/3/1 40/3/1 44/3/1
f 46/3/1 42/3/1 36/3/1
f 47/3/1 40/3/1 45/3/1
f 48/3/1 40/3/1 47/3/1
f 50/3/1 46/3/1 36/3/1
f 51/3/1 46/3/1 50/3/1
f 54/3/1 48/3/1 47/3/1
f 55/1/1 49/1/1 48/1/1
f 55/3/1 48/3/1 54/3/1
f 56/2/1 51/2/1 50/2/1
f 57/3/1 52/3/1 51/3/1
f 57/2/1 51/2/1 56/2/1
f 58/3/1 52/3/1 57/3/1
f 60/3/1 54/3/1 53/3/1
f 61/2/1 55/2/1 54/2/1
f 61/3/1 54/3/1 60/3/1
f 62/1/1 49/1/1 55/1/1
f 62/2/1 55/2/1 61/2/1
f 63/1/1 49/1/1 62/1/1
f 64/2/1 59/2/1 58/2/1
f 64/2/1 61/2/1 60/2/1
f 64/2/1 60/2/1 59/2/1
f 64/2/1 58/2/1 57/2/1
f 65/2/1 61/2/1 64/2/1
f 68/3/1 67/3/1 66/3/1
f 69/3/1 67/3/1 68/3/1
f 74/1/1 73/1/1 72/1/1
f 75/1/1 73/1/1 74/1/1
f 76/3/1 71/3/1 70/3/1
f 77/3/1 71/3/1 76/3/1
f 83/2/1 79/2/1 78/2/1
f 84/2/1 79/2/1 83/2/1
f 87/2/1 81/2/1 80/2/1
f 88/1/1 82/1/1 81/1/1
f 88/2/1 81/2/1 87/2/1
f 89/1/1 82/1/1 88/1/1
f 90/2/1 86/2/1 85/2/1
f 91/2/1 86/2/1 90/2/1
f 95/3/1 93/3/1 92/3/1
f 96/3/1 93/3/1 95/3/1
f 98/3/1 95/3/1 94/3/1
f 99/3/1 95/3/1 98/3/1
f 100/3/1 97/3/1 96/3/1
f 101/3/1 97/3/1 100/3/1
f 106/3/1 103/3/1 102/3/1
f 107/3/1 103/3/1 106/3/1
f 108/3/1 105/3/1 104/3/1
f 109/3/1 105/3/1 108/3/1
f 112/3/1 111/3/1 110/3/1
f 113/3/1 111/3/1 112/3/1
f 118/2/1 115/2/1 114/2/1
f 119/2/1 115/2/1 118/2/1
f 120/2/1 117/2/1 116/2/1
f 121/2/1 117/2/1 120/2/1
f 124/1/1 123/1/1 122/1/1
f 125/1/1 123/1/1 124/1/1
f 126/1/2 127/1/2 128/1/2
f 128/1/2 127/1/2 129/1/2
f 130/1/2 131/1/2 132/1/2
f 132/1/2 131/1/2 133/1/2
f 134/3/2 135/3/2 137/3/2
f 137/3/2 135/3/2 138/3/2
f 136/3/2 137/3/2 140/3/2
f 140/3/2 137/3/2 141/3/2
f 138/3/2 139/3/2 142/3/2
f 142/3/2 139/3/2 143/3/2
f 144/3/2 145/3/2 146/3/2
f 146/3/2 145/3/2 147/3/2
f 148/3/2 149/3/2 152/3/2
f 152/3/2 149/3/2 153/3/2
f 150/1/2 151/1/2 154/1/2
f 154/1/2 151/1/2 155/1/2
f 156/2/2 157/2/2 160/2/2
f 160/2/2 157/2/2 161/2/2
f 158/2/2 159/2/2 162/2/2
f 162/2/2 159/2/2 163/2/2
f 164/3/2 165/3/2 166/3/2
f 166/3/2 165/3/2 167/3/2
f 168/1/2 169/1/2 172/1/2
f 172/1/2 169/1/2 173/1/2
f 170/3/2 171/3/2 176/3/2
f 176/3/2 171/3/2 177/3/2
f 174/1/2 175/1/2 178/1/2
f 178/1/2 175/1/2 179/1/2
f 180/2/2 181/2/2 184/2/2
f 184/2/2 181/2/2 185/2/2
f 182/2/2 183/2/2 188/2/2
f 188/2/2 183/2/2 189/2/2
f 186/2/2 187/2/2 190/2/2
f 190/2/2 187/2/2 191/2/2
f 192/3/2 193/3/2 196/3/2
f 196/3/2 193/3/2 197/3/2
f 194/3/2 195/3/2 200/3/2
f 200/3/2 195/3/2 201/3/2
f 197/3/2 198/3/2 202/3/2
f 202/3/2 198/3/2 203/3/2
f 199/3/2 200/3/2 204/3/2
f 204/3/2 200/3/2 205/3/2
f 205/3/2 200/3/2 206/3/2
f 197/3/2 202/3/2 208/3/2
f 205/3/2 206/3/2 209/3/2
f 206/1/2 207/1/2 210/1/2
f 209/3/2 206/3/2 210/3/2
f 210/1/2 207/1/2 211/1/2
f 197/3/2 208/3/2 212/3/2
f 212/3/2 208/3/2 213/3/2
f 209/3/2 210/3/2 216/3/2
f 212/2/2 213/2/2 217/2/2
f 213/3/2 214/3/2 218/3/2
f 217/2/2 213/2/2 218/2/2
f 218/3/2 214/3/2 219/3/2
f 215/3/2 216/3/2 221/3/2
f 216/3/2 210/3/2 222/3/2
f 221/3/2 216/3/2 222/3/2
f 222/3/2 210/3/2 223/3/2
f 219/2/2 220/2/2 224/2/2
f 220/2/2 221/2/2 224/2/2
f 221/2/2 222/2/2 224/2/2
f 218/2/2 219/2/2 224/2/2
f 224/2/2 222/2/2 225/2/2
f 226/3/2 227/3/2 230/3/2
f 230/3/2 227/3/2 231/3/2
f 228/3/2 229/3/2 234/3/2
f 234/3/2 229/3/2 235/3/2
f 232/3/2 233/3/2 237/3/2
f 237/3/2 233/3/2 238/3/2
f 236/3/2 237/3/2 240/3/2
f 238/3/2 239/3/2 240/3/2
f 237/3/2 238/3/2 240/3/2
f 240/3/2 239/3/2 241/3/2
f 241/3/2 239/3/2 242/3/2
f 242/3/2 239/3/2 243/3/2
f 240/2/2 241/2/2 244/2/2
f 241/3/2 242/3/2 245/3/2
f 244/2/2 241/2/2 245/2/2
f 245/3/2 242/3/2 246/3/2
f 242/2/2 243/2/2 247/2/2
f 246/3/2 242/3/2 247/3/2
f 247/2/2 243/2/2 248/2/2
f 245/2/2 246/2/2 249/2/2
f 246/3/2 247/3/2 250/3/2
f 249/2/2 246/2/2 250/2/2
f 250/3/2 247/3/2 251/3/2
f 252/3/2 253/3/2 255/3/2
f 253/2/2 254/2/2 256/2/2
f 255/3/2 253/3/2 256/3/2
f 256/2/2 254/2/2 257/2/2
f 262/3/3 259/3/3 258/3/3
f 263/3/3 261/3/3 260/3/3
f 264/3/3 261/3/3 263/3/3
f 266/3/3 262/3/3 258/3/3
f 266/3/3 265/3/3 264/3/3
f 266/3/3 264/3/3 263/3/3
f 266/3/3 263/3/3 262/3/3
f 267/3/3 265/3/3 266/3/3
f 268/3/3 265/3/3 267/3/3
f 269/3/3 265/3/3 268/3/3
f 270/3/3 268/3/3 267/3/3
f 271/3/3 268/3/3 270/3/3
f 272/3/3 266/3/3 258/3/3
f 273/3/3 266/3/3 272/3/3
f 276/2/3 275/2/3 274/2/3
f 277/2/3 275/2/3 276/2/3
f 280/3/3 278/3/3 277/3/3
f 281/2/3 279/2/3 278/2/3
f 281/3/3 278/3/3 280/3/3
f 282/2/3 279/2/3 281/2/3
f 284/3/3 280/3/3 277/3/3
f 285/3/3 280/3/3 284/3/3
f 286/3/3 282/3/3 281/3/3
f 287/2/3 283/2/3 282/2/3
f 287/3/3 282/3/3 286/3/3
f 291/2/3 283/2/3 287/2/3
f 292/3/3 289/3/3 288/3/3
f 293/3/3 291/3/3 290/3/3
f 294/2/3 283/2/3 291/2/3
f 294/3/3 291/3/3 293/3/3
f 295/2/3 283/2/3 294/2/3
f 297/3/3 292/3/3 288/3/3
f 297/3/3 293/3/3 292/3/3
f 298/2/3 294/2/3 293/2/3
f 298/3/3 293/3/3 297/3/3
f 299/2/3 294/2/3 298/2/3
f 300/3/3 297/3/3 296/3/3
f 301/3/3 297/3/3 300/3/3
f 304/3/3 303/3/3 302/3/3
f 305/3/3 303/3/3 304/3/3
f 309/3/3 307/3/3 306/3/3
f 310/2/3 308/2/3 307/2/3
f 310/3/3 307/3/3 309/3/3
f 311/2/3 308/2/3 310/2/3
f 314/2/3 313/2/3 312/2/3
f 315/2/3 313/2/3 314/2/3
f 320/3/3 317/3/3 316/3/3
f 321/3/3 317/3/3 320/3/3
f 322/2/3 319/2/3 318/2/3
f 323/2/3 319/2/3 322/2/3
f 329/2/3 325/2/3 324/2/3
f 330/2/3 325/2/3 329/2/3
f 333/3/3 327/3/3 326/3/3
f 334/2/3 328/2/3 327/2/3
f 334/3/3 327/3/3 333/3/3
f 335/2/3 328/2/3 334/2/3
f 336/3/3 332/3/3 331/3/3
f 337/3/3 332/3/3 336/3/3
f 342/3/3 339/3/3 338/3/3
f 343/3/3 339/3/3 342/3/3
f 344/3/3 341/3/3 340/3/3
f 345/3/3 341/3/3 344/3/3
f 351/3/3 347/3/3 346/3/3
f 352/3/3 347/3/3 351/3/3
f 353/2/3 349/2/3 348/2/3
f 354/2/3 349/2/3 353/2/3
f 355/3/3 351/3/3 350/3/3
f 356/3/3 351/3/3 355/3/3
f 360/3/3 357/3/3 356/3/3
f 361/3/3 357/3/3 360/3/3
f 362/2/3 359/2/3 358/2/3
f 363/2/3 359/2/3 362/2/3
f 368/3/3 365/3/3 364/3/3
f 369/3/3 365/3/3 368/3/3
f 370/2/3 367/2/3 366/2/3
f 371/2/3 367/2/3 370/2/3
f 372/3/4 373/3/4 376/3/4
f 376/3/4 373/3/4 377/3/4
f 374/2/4 375/2/4 378/2/4
f 378/2/4 375/2/4 379/2/4
f 380/3/4 381/3/4 385/3/4
f 385/3/4 381/3/4 386/3/4
f 382/2/4 383/2/4 387/2/4
f 387/2/4 383/2/4 388/2/4
f 384/3/4 385/3/4 389/3/4
f 389/3/4 385/3/4 390/3/4
f 390/3/4 391/3/4 394/3/4
f 394/3/4 391/3/4 395/3/4
f 392/2/4 393/2/4 396/2/4
f 396/2/4 393/2/4 397/2/4
f 398/3/4 399/3/4 402/3/4
f 402/3/4 399/3/4 403/3/4
f 400/3/4 401/3/4 404/3/4
f 404/3/4 401/3/4 405/3/4
f 406/3/4 407/3/4 408/3/4
f 408/3/4 407/3/4 409/3/4
f 410/2/4 411/2/4 413/2/4
f 411/3/4 412/3/4 414/3/4
f 413/2/4 411/2/4 414/2/4
f 414/3/4 412/3/4 415/3/4
f 416/2/4 417/2/4 418/2/4
f 418/2/4 417/2/4 419/2/4
f 420/3/4 421/3/4 424/3/4
f 424/3/4 421/3/4 425/3/4
f 422/2/4 423/2/4 426/2/4
f 426/2/4 423/2/4 427/2/4
f 428/2/4 429/2/4 433/2/4
f 433/2/4 429/2/4 434/2/4
f 430/3/4 431/3/4 437/3/4
f 431/2/4 432/2/4 438/2/4
f 437/3/4 431/3/4 438/3/4
f 438/2/4 432/2/4 439/2/4
f 435/2/4 436/2/4 440/2/4
f 440/2/4 436/2/4 441/2/4
f 442/3/4 443/3/4 444/3/4
f 444/3/4 443/3/4 445/3/4
f 445/3/4 446/3/4 447/3/4
f 447/3/4 446/3/4 448/3/4
f 445/3/4 447/3/4 450/3/4
f 450/3/4 447/3/4 451/3/4
f 448/4/4 449/4/4 452/4/4
f 452/4/4 449/4/4 453/4/4
f 453/2/4 454/2/4 456/2/4
f 455/3/4 456/3/4 460/3/4
f 456/2/4 454/2/4 461/2/4
f 460/3/4 456/3/4 461/3/4
f 461/2/4 454/2/4 462/2/4
f 457/3/4 458/3/4 464/3/4
f 464/3/4 458/3/4 465/3/4
f 459/3/4 460/3/4 466/3/4
f 460/3/4 461/3/4 466/3/4
f 466/3/4 461/3/4 467/3/4
f 463/3/4 464/3/4 468/3/4
f 468/3/4 464/3/4 469/3/4
f 472/1/4 473/1/4 475/1/4
f 475/1/4 473/1/4 476/1/4
f 470/3/4 471/3/4 478/3/4
f 474/1/4 475/1/4 479/1/4
f 479/1/4 475/1/4 480/1/4
f 476/1/4 477/1/4 481/1/4
f 481/1/4 477/1/4 482/1/4
f 470/3/4 478/3/4 483/3/4
f 478/3/4 479/3/4 483/3/4
f 479/1/4 480/1/4 484/1/4
f 483/3/4 479/3/4 484/3/4
f 480/1/4 481/1/4 484/1/4
f 484/1/4 481/1/4 485/1/4
f 485/1/4 481/1/4 486/1/4
f 486/1/4 481/1/4 487/1/4
f 470/3/4 483/3/4 488/3/4
f 483/1/4 484/1/4 488/1/4
f 484/4/4 485/4/4 489/4/4
f 488/1/4 484/1/4 489/1/4
f 485/1/4 486/1/4 490/1/4
f 489/4/4 485/4/4 490/4/4
f 490/1/4 486/1/4 491/1/4
f 470/3/4 488/3/4 492/3/4
f 492/3/4 488/3/4 493/3/4
f 489/1/4 490/1/4 494/1/4
f 494/1/4 490/1/4 495/1/4
f 498/3/5 497/3/5 496/3/5
f 499/3/5 497/3/5 498/3/5
f 503/3/5 501/3/5 500/3/5
f 504/3/5 501/3/5 503/3/5
f 506/3/5 503/3/5 502/3/5
f 507/3/5 503/3/5 506/3/5
f 508/3/5 505/3/5 504/3/5
f 509/3/5 505/3/5 508/3/5
f 510/3/5 508/3/5 507/3/5
f 511/3/5 508/3/5 510/3/5
f 515/3/5 513/3/5 512/3/5
f 516/3/5 513/3/5 515/3/5
f 519/2/5 515/2/5 514/2/5
f 520/3/5 517/3/5 516/3/5
f 520/3/5 516/3/5 515/3/5
f 520/2/5 515/2/5 519/2/5
f 521/3/5 517/3/5 520/3/5
f 522/3/5 517/3/5 521/3/5
f 523/3/5 517/3/5 522/3/5
f 525/3/5 519/3/5 518/3/5
f 525/3/5 520/3/5 519/3/5
f 525/3/5 521/3/5 520/3/5
f 526/3/5 521/3/5 525/3/5
f 527/3/5 524/3/5 523/3/5
f 527/3/5 523/3/5 522/3/5
f 528/3/5 524/3/5 527/3/5
f 529/3/5 525/3/5 518/3/5
f 532/3/5 524/3/5 528/3/5
f 533/3/5 524/3/5 532/3/5
f 534/3/5 524/3/5 533/3/5
f 535/3/5 530/3/5 529/3/5
f 535/3/5 529/3/5 518/3/5
f 536/3/5 530/3/5 535/3/5
f 537/3/5 530/3/5 536/3/5
f 538/3/5 532/3/5 531/3/5
f 538/3/5 533/3/5 532/3/5
f 539/2/5 534/2/5 533/2/5
f 539/3/5 533/3/5 538/3/5
f 540/2/5 534/2/5 539/2/5
f 541/3/5 538/3/5 537/3/5
f 541/3/5 537/3/5 536/3/5
f 541/3/5 539/3/5 538/3/5
f 542/3/5 539/3/5 541/3/5
f 543/3/5 539/3/5 542/3/5
f 544/3/5 539/3/5 543/3/5
f 545/3/5 543/3/5 542/3/5
f 546/3/5 543/3/5 545/3/5
f 551/3/5 548/3/5 547/3/5
f 552/3/5 548/3/5 551/3/5
f 553/3/5 550/3/5 549/3/5
f 554/3/5 550/3/5 553/3/5
f 559/3/5 556/3/5 555/3/5
f 560/3/5 556/3/5 559/3/5
f 561/3/5 558/3/5 557/3/5
f 562/3/5 558/3/5 561/3/5
f 567/2/5 564/2/5 563/2/5
f 568/2/5 564/2/5 567/2/5
f 569/3/5 566/3/5 565/3/5
f 570/3/5 566/3/5 569/3/5
f 575/1/5 572/1/5 571/1/5
f 576/1/5 572/1/5 575/1/5
f 577/1/5 574/1/5 573/1/5
f 578/1/5 574/1/5 577/1/5
f 581/1/5 580/1/5 579/1/5
f 582/1/5 580/1/5 581/1/5
f 585/1/5 584/1/5 583/1/5
f 586/1/5 584/1/5 585/1/5
f 587/3/6 588/3/6 592/3/6
f 592/3/6 588/3/6 593/3/6
f 589/3/6 590/3/6 594/3/6
f 594/3/6 590/3/6 595/3/6
f 591/2/6 592/2/6 598/2/6
f 598/2/6 592/2/6 599/2/6
f 595/3/6 596/3/6 600/3/6
f 598/3/6 599/3/6 602/3/6
f 597/3/6 598/3/6 602/3/6
f 602/3/6 599/3/6 603/3/6
f 600/3/6 601/3/6 604/3/6
f 595/3/6 600/3/6 604/3/6
f 604/3/6 601/3/6 605/3/6
f 597/3/6 602/3/6 606/3/6
f 605/3/6 601/3/6 609/3/6
f 609/3/6 601/3/6 610/3/6
f 606/3/6 607/3/6 611/3/6
f 597/3/6 606/3/6 611/3/6
f 611/3/6 607/3/6 612/3/6
f 609/2/6 610/2/6 613/2/6
f 608/3/6 609/3/6 613/3/6
f 613/2/6 610/2/6 614/2/6
f 612/3/6 607/3/6 615/3/6
f 615/3/6 607/3/6 616/3/6
f 608/3/6 613/3/6 619/3/6
f 619/3/6 613/3/6 620/3/6
f 616/3/6 617/3/6 621/3/6
f 621/3/6 617/3/6 622/3/6
f 618/3/6 619/3/6 623/3/6
f 623/3/6 619/3/6 624/3/6
f 625/1/6 626/1/6 629/1/6
f 629/1/6 626/1/6 630/1/6
f 627/1/6 628/1/6 631/1/6
f 631/1/6 628/1/6 632/1/6
f 633/3/6 634/3/6 637/3/6
f 637/3/6 634/3/6 638/3/6
f 635/3/6 636/3/6 639/3/6
f 639/3/6 636/3/6 640/3/6
f 641/2/6 642/2/6 645/2/6
f 645/2/6 642/2/6 646/2/6
f 643/2/6 644/2/6 647/2/6
f 647/2/6 644/2/6 648/2/6
f 649/3/6 650/3/6 653/3/6
f 653/3/6 650/3/6 654/3/6
f 651/2/6 652/2/6 655/2/6
f 655/2/6 652/2/6 656/2/6
f 657/1/6 658/1/6 659/1/6
f 659/1/6 658/1/6 660/1/6
f 661/3/6 662/3/6 665/3/6
f 665/3/6 662/3/6 666/3/6
f 663/2/6 664/2/6 669/2/6
f 669/2/6 664/2/6 670/2/6
f 667/2/6 668/2/6 671/2/6
f 671/2/6 668/2/6 672/2/6
f 673/3/6 674/3/6 677/3/6
f 677/3/6 674/3/6 678/3/6
f 675/2/6 676/2/6 679/2/6
f 679/2/6 676/2/6 680/2/6
f 677/2/6 678/2/6 681/2/6
f 681/2/6 678/2/6 682/2/6
f 679/3/6 680/3/6 683/3/6
f 683/3/6 680/3/6 684/3/6
f 685/2/6 686/2/6 689/2/6
f 689/2/6 686/2/6 690/2/6
f 687/3/6 688/3/6 693/3/6
f 693/3/6 688/3/6 694/3/6
f 689/1/6 690/1/6 695/1/6
f 695/1/6 690/1/6 696/1/6
f 691/1/6 692/1/6 697/1/6
f 697/1/6 692/1/6 698/1/6
f 699/2/6 700/2/6 702/2/6
f 702/2/6 700/2/6 703/2/6
f 703/2/6 700/2/6 704/2/6
f 704/2/6 700/2/6 705/2/6
f 701/2/6 702/2/6 707/2/6
f 702/2/6 703/2/6 707/2/6
f 707/2/6 703/2/6 708/2/6
f 705/2/6 706/2/6 709/2/6
f 704/2/6 705/2/6 709/2/6
f 709/2/6 706/2/6 710/2/6
f 701/2/6 707/2/6 711/2/6
f 710/2/6 706/2/6 714/2/6
f 711/2/6 712/2/6 715/2/6
f 701/2/6 711/2/6 715/2/6
f 715/2/6 712/2/6 716/2/6
f 716/2/6 712/2/6 717/2/6
f 713/2/6 714/2/6 718/2/6
f 714/2/6 706/2/6 719/2/6
f 718/2/6 714/2/6 719/2/6
f 719/2/6 706/2/6 720/2/6
f 716/2/6 717/2/6 721/2/6
f 717/2/6 718/2/6 721/2/6
f 718/2/6 719/2/6 721/2/6
f 721/2/6 719/2/6 722/2/6
f 722/2/6 719/2/6 723/2/6
f 721/1/6 722/1/6 724/1/6
f 724/1/6 722/1/6 725/1/6
f 726/2/6 727/2/6 729/2/6
f 729/2/6 727/2/6 730/2/6
f 728/2/6 729/2/6 732/2/6
f 730/2/6 731/2/6 732/2/6
f 729/2/6 730/2/6 732/2/6
f 732/2/6 731/2/6 733/2/6
f 733/2/6 731/2/6 734/2/6
f 734/2/6 731/2/6 735/2/6
f 733/2/6 734/2/6 736/2/6
f 736/2/6 734/2/6 737/2/6
