# MagicaVoxel @ Ephtracy

# group
g Turrets-8

# material
mtllib Turrets-8.mtl
usemtl palette

# normals
vn -1 0 0
vn 1 0 0
vn 0 0 1
vn 0 0 -1
vn 0 -1 0
vn 0 1 0

# texcoords
vt 0.966797 0.5
vt 0.982422 0.5
vt 0.990234 0.5

# verts
v -2.5 0 2.5
v -2.5 0 -2.5
v -2.5 1 2.5
v -2.5 1 1.5
v -2.5 1 -1.5
v -2.5 1 -2.5
v -2.5 9 2.5
v -2.5 9 1.5
v -2.5 9 -1.5
v -2.5 9 -2.5
v -2.5 10 2.5
v -2.5 10 1.5
v -2.5 10 -1.5
v -2.5 10 -2.5
v -2.5 19 1.5
v -2.5 19 -1.5
v -1.5 1 2.5
v -1.5 1 1.5
v -1.5 1 -1.5
v -1.5 1 -2.5
v -1.5 9 2.5
v -1.5 9 1.5
v -1.5 9 -1.5
v -1.5 9 -2.5
v -1.5 10 2.5
v -1.5 10 1.5
v -1.5 10 -1.5
v -1.5 10 -2.5
v -1.5 19 2.5
v -1.5 19 1.5
v -1.5 19 -1.5
v -1.5 19 -2.5
v 1.5 10 1.5
v 1.5 10 -1.5
v 1.5 19 1.5
v 1.5 19 -1.5
v -1.5 10 1.5
v -1.5 10 -1.5
v -1.5 19 1.5
v -1.5 19 -1.5
v 1.5 1 2.5
v 1.5 1 1.5
v 1.5 1 -1.5
v 1.5 1 -2.5
v 1.5 9 2.5
v 1.5 9 1.5
v 1.5 9 -1.5
v 1.5 9 -2.5
v 1.5 10 2.5
v 1.5 10 1.5
v 1.5 10 -1.5
v 1.5 10 -2.5
v 1.5 19 2.5
v 1.5 19 1.5
v 1.5 19 -1.5
v 1.5 19 -2.5
v 2.5 0 2.5
v 2.5 0 -2.5
v 2.5 1 2.5
v 2.5 1 1.5
v 2.5 1 -1.5
v 2.5 1 -2.5
v 2.5 9 2.5
v 2.5 9 1.5
v 2.5 9 -1.5
v 2.5 9 -2.5
v 2.5 10 2.5
v 2.5 10 1.5
v 2.5 10 -1.5
v 2.5 10 -2.5
v 2.5 19 1.5
v 2.5 19 -1.5
v -2.5 0 2.5
v -2.5 1 2.5
v -2.5 9 2.5
v -2.5 10 2.5
v -1.5 1 2.5
v -1.5 9 2.5
v -1.5 10 2.5
v -1.5 19 2.5
v 1.5 1 2.5
v 1.5 9 2.5
v 1.5 10 2.5
v 1.5 19 2.5
v 2.5 0 2.5
v 2.5 1 2.5
v 2.5 9 2.5
v 2.5 10 2.5
v -2.5 1 1.5
v -2.5 9 1.5
v -2.5 10 1.5
v -2.5 19 1.5
v -1.5 1 1.5
v -1.5 9 1.5
v -1.5 10 1.5
v -1.5 19 1.5
v 1.5 1 1.5
v 1.5 9 1.5
v 1.5 10 1.5
v 1.5 19 1.5
v 2.5 1 1.5
v 2.5 9 1.5
v 2.5 10 1.5
v 2.5 19 1.5
v -1.5 10 -1.5
v -1.5 19 -1.5
v 1.5 10 -1.5
v 1.5 19 -1.5
v -1.5 10 1.5
v -1.5 19 1.5
v 1.5 10 1.5
v 1.5 19 1.5
v -2.5 1 -1.5
v -2.5 9 -1.5
v -2.5 10 -1.5
v -2.5 19 -1.5
v -1.5 1 -1.5
v -1.5 9 -1.5
v -1.5 10 -1.5
v -1.5 19 -1.5
v 1.5 1 -1.5
v 1.5 9 -1.5
v 1.5 10 -1.5
v 1.5 19 -1.5
v 2.5 1 -1.5
v 2.5 9 -1.5
v 2.5 10 -1.5
v 2.5 19 -1.5
v -2.5 0 -2.5
v -2.5 1 -2.5
v -2.5 9 -2.5
v -2.5 10 -2.5
v -1.5 1 -2.5
v -1.5 9 -2.5
v -1.5 10 -2.5
v -1.5 19 -2.5
v 1.5 1 -2.5
v 1.5 9 -2.5
v 1.5 10 -2.5
v 1.5 19 -2.5
v 2.5 0 -2.5
v 2.5 1 -2.5
v 2.5 9 -2.5
v 2.5 10 -2.5
v -2.5 0 2.5
v 2.5 0 2.5
v -2.5 0 -2.5
v 2.5 0 -2.5
v -2.5 9 2.5
v -1.5 9 2.5
v 1.5 9 2.5
v 2.5 9 2.5
v -2.5 9 1.5
v -1.5 9 1.5
v 1.5 9 1.5
v 2.5 9 1.5
v -2.5 9 -1.5
v -1.5 9 -1.5
v 1.5 9 -1.5
v 2.5 9 -1.5
v -2.5 9 -2.5
v -1.5 9 -2.5
v 1.5 9 -2.5
v 2.5 9 -2.5
v -2.5 1 2.5
v -1.5 1 2.5
v 1.5 1 2.5
v 2.5 1 2.5
v -2.5 1 1.5
v -1.5 1 1.5
v 1.5 1 1.5
v 2.5 1 1.5
v -2.5 1 -1.5
v -1.5 1 -1.5
v 1.5 1 -1.5
v 2.5 1 -1.5
v -2.5 1 -2.5
v -1.5 1 -2.5
v 1.5 1 -2.5
v 2.5 1 -2.5
v -2.5 10 2.5
v -1.5 10 2.5
v 1.5 10 2.5
v 2.5 10 2.5
v -2.5 10 1.5
v -1.5 10 1.5
v 1.5 10 1.5
v 2.5 10 1.5
v -2.5 10 -1.5
v -1.5 10 -1.5
v 1.5 10 -1.5
v 2.5 10 -1.5
v -2.5 10 -2.5
v -1.5 10 -2.5
v 1.5 10 -2.5
v 2.5 10 -2.5
v -1.5 19 2.5
v 1.5 19 2.5
v -2.5 19 1.5
v -1.5 19 1.5
v 1.5 19 1.5
v 2.5 19 1.5
v -2.5 19 -1.5
v -1.5 19 -1.5
v 1.5 19 -1.5
v 2.5 19 -1.5
v -1.5 19 -2.5
v 1.5 19 -2.5

# faces
f 3/3/1 2/3/1 1/3/1
f 4/3/1 2/3/1 3/3/1
f 5/3/1 2/3/1 4/3/1
f 6/3/1 2/3/1 5/3/1
f 8/1/1 5/1/1 4/1/1
f 9/1/1 5/1/1 8/1/1
f 11/3/1 8/3/1 7/3/1
f 11/3/1 10/3/1 9/3/1
f 11/3/1 9/3/1 8/3/1
f 12/3/1 10/3/1 11/3/1
f 13/3/1 10/3/1 12/3/1
f 14/3/1 10/3/1 13/3/1
f 15/2/1 13/2/1 12/2/1
f 16/2/1 13/2/1 15/2/1
f 21/1/1 18/1/1 17/1/1
f 22/1/1 18/1/1 21/1/1
f 23/1/1 20/1/1 19/1/1
f 24/1/1 20/1/1 23/1/1
f 29/2/1 26/2/1 25/2/1
f 30/2/1 26/2/1 29/2/1
f 31/2/1 28/2/1 27/2/1
f 32/2/1 28/2/1 31/2/1
f 35/2/1 34/2/1 33/2/1
f 36/2/1 34/2/1 35/2/1
f 37/2/2 38/2/2 39/2/2
f 39/2/2 38/2/2 40/2/2
f 41/1/2 42/1/2 45/1/2
f 45/1/2 42/1/2 46/1/2
f 43/1/2 44/1/2 47/1/2
f 47/1/2 44/1/2 48/1/2
f 49/2/2 50/2/2 53/2/2
f 53/2/2 50/2/2 54/2/2
f 51/2/2 52/2/2 55/2/2
f 55/2/2 52/2/2 56/2/2
f 57/3/2 58/3/2 59/3/2
f 59/3/2 58/3/2 60/3/2
f 60/3/2 58/3/2 61/3/2
f 61/3/2 58/3/2 62/3/2
f 60/1/2 61/1/2 64/1/2
f 64/1/2 61/1/2 65/1/2
f 63/3/2 64/3/2 67/3/2
f 65/3/2 66/3/2 67/3/2
f 64/3/2 65/3/2 67/3/2
f 67/3/2 66/3/2 68/3/2
f 68/3/2 66/3/2 69/3/2
f 69/3/2 66/3/2 70/3/2
f 68/2/2 69/2/2 71/2/2
f 71/2/2 69/2/2 72/2/2
f 77/3/3 74/3/3 73/3/3
f 78/3/3 76/3/3 75/3/3
f 79/3/3 76/3/3 78/3/3
f 81/3/3 77/3/3 73/3/3
f 81/1/3 78/1/3 77/1/3
f 82/3/3 79/3/3 78/3/3
f 82/1/3 78/1/3 81/1/3
f 83/2/3 80/2/3 79/2/3
f 83/3/3 79/3/3 82/3/3
f 84/2/3 80/2/3 83/2/3
f 85/3/3 81/3/3 73/3/3
f 86/3/3 81/3/3 85/3/3
f 87/3/3 83/3/3 82/3/3
f 88/3/3 83/3/3 87/3/3
f 93/1/3 90/1/3 89/1/3
f 94/1/3 90/1/3 93/1/3
f 95/2/3 92/2/3 91/2/3
f 96/2/3 92/2/3 95/2/3
f 101/1/3 98/1/3 97/1/3
f 102/1/3 98/1/3 101/1/3
f 103/2/3 100/2/3 99/2/3
f 104/2/3 100/2/3 103/2/3
f 107/2/3 106/2/3 105/2/3
f 108/2/3 106/2/3 107/2/3
f 109/2/4 110/2/4 111/2/4
f 111/2/4 110/2/4 112/2/4
f 113/1/4 114/1/4 117/1/4
f 117/1/4 114/1/4 118/1/4
f 115/2/4 116/2/4 119/2/4
f 119/2/4 116/2/4 120/2/4
f 121/1/4 122/1/4 125/1/4
f 125/1/4 122/1/4 126/1/4
f 123/2/4 124/2/4 127/2/4
f 127/2/4 124/2/4 128/2/4
f 129/3/4 130/3/4 133/3/4
f 131/3/4 132/3/4 134/3/4
f 134/3/4 132/3/4 135/3/4
f 129/3/4 133/3/4 137/3/4
f 133/1/4 134/1/4 137/1/4
f 134/3/4 135/3/4 138/3/4
f 137/1/4 134/1/4 138/1/4
f 135/2/4 136/2/4 139/2/4
f 138/3/4 135/3/4 139/3/4
f 139/2/4 136/2/4 140/2/4
f 129/3/4 137/3/4 141/3/4
f 141/3/4 137/3/4 142/3/4
f 138/3/4 139/3/4 143/3/4
f 143/3/4 139/3/4 144/3/4
f 147/3/5 146/3/5 145/3/5
f 148/3/5 146/3/5 147/3/5
f 153/3/5 150/3/5 149/3/5
f 154/3/5 150/3/5 153/3/5
f 155/3/5 152/3/5 151/3/5
f 156/3/5 152/3/5 155/3/5
f 161/3/5 158/3/5 157/3/5
f 162/3/5 158/3/5 161/3/5
f 163/3/5 160/3/5 159/3/5
f 164/3/5 160/3/5 163/3/5
f 165/3/6 166/3/6 169/3/6
f 169/3/6 166/3/6 170/3/6
f 167/3/6 168/3/6 171/3/6
f 171/3/6 168/3/6 172/3/6
f 173/3/6 174/3/6 177/3/6
f 177/3/6 174/3/6 178/3/6
f 175/3/6 176/3/6 179/3/6
f 179/3/6 176/3/6 180/3/6
f 181/3/6 182/3/6 185/3/6
f 185/3/6 182/3/6 186/3/6
f 183/3/6 184/3/6 187/3/6
f 187/3/6 184/3/6 188/3/6
f 186/3/6 187/3/6 190/3/6
f 190/3/6 187/3/6 191/3/6
f 189/3/6 190/3/6 193/3/6
f 193/3/6 190/3/6 194/3/6
f 191/3/6 192/3/6 195/3/6
f 195/3/6 192/3/6 196/3/6
f 197/2/6 198/2/6 200/2/6
f 200/2/6 198/2/6 201/2/6
f 199/2/6 200/2/6 203/2/6
f 203/2/6 200/2/6 204/2/6
f 201/2/6 202/2/6 205/2/6
f 205/2/6 202/2/6 206/2/6
f 204/2/6 205/2/6 207/2/6
f 207/2/6 205/2/6 208/2/6
