# MagicaVoxel @ Ephtracy

# group
g Turrets-6

# material
mtllib Turrets-6.mtl
usemtl palette

# normals
vn -1 0 0
vn 1 0 0
vn 0 0 1
vn 0 0 -1
vn 0 -1 0
vn 0 1 0

# texcoords
vt 0.966797 0.5
vt 0.986328 0.5
vt 0.990234 0.5

# verts
v -8.5 0 2.5
v -8.5 0 -2.5
v -8.5 1 2.5
v -8.5 1 -2.5
v -7.5 0 4.5
v -7.5 0 2.5
v -7.5 0 -2.5
v -7.5 0 -4.5
v -7.5 1 4.5
v -7.5 1 2.5
v -7.5 1 -2.5
v -7.5 1 -4.5
v -6.5 0 6.5
v -6.5 0 4.5
v -6.5 0 -4.5
v -6.5 0 -6.5
v -6.5 1 6.5
v -6.5 1 4.5
v -6.5 1 -4.5
v -6.5 1 -6.5
v -4.5 0 7.5
v -4.5 0 6.5
v -4.5 0 -6.5
v -4.5 0 -7.5
v -4.5 1 7.5
v -4.5 1 6.5
v -4.5 1 5.5
v -4.5 1 4.5
v -4.5 1 3.5
v -4.5 1 -3.5
v -4.5 1 -4.5
v -4.5 1 -5.5
v -4.5 1 -6.5
v -4.5 1 -7.5
v -4.5 12 6.5
v -4.5 12 5.5
v -4.5 12 4.5
v -4.5 12 3.5
v -4.5 12 -3.5
v -4.5 12 -4.5
v -4.5 12 -5.5
v -4.5 12 -6.5
v -3.5 12 6.5
v -3.5 12 5.5
v -3.5 12 4.5
v -3.5 12 3.5
v -3.5 12 -3.5
v -3.5 12 -4.5
v -3.5 12 -5.5
v -3.5 12 -6.5
v -3.5 13 6.5
v -3.5 13 5.5
v -3.5 13 4.5
v -3.5 13 3.5
v -3.5 13 -3.5
v -3.5 13 -4.5
v -3.5 13 -5.5
v -3.5 13 -6.5
v -2.5 0 8.5
v -2.5 0 7.5
v -2.5 0 -7.5
v -2.5 0 -8.5
v -2.5 1 8.5
v -2.5 1 7.5
v -2.5 1 -7.5
v -2.5 1 -8.5
v -2.5 13 6.5
v -2.5 13 5.5
v -2.5 13 4.5
v -2.5 13 3.5
v -2.5 13 -3.5
v -2.5 13 -4.5
v -2.5 13 -5.5
v -2.5 13 -6.5
v -2.5 14 6.5
v -2.5 14 5.5
v -2.5 14 4.5
v -2.5 14 3.5
v -2.5 14 -3.5
v -2.5 14 -4.5
v -2.5 14 -5.5
v -2.5 14 -6.5
v -1.5 8 3.5
v -1.5 8 2.5
v -1.5 8 -2.5
v -1.5 8 -3.5
v -1.5 10 3.5
v -1.5 10 2.5
v -1.5 10 -2.5
v -1.5 10 -3.5
v 0.5 8 3.5
v 0.5 8 2.5
v 0.5 8 -2.5
v 0.5 8 -3.5
v 0.5 10 3.5
v 0.5 10 2.5
v 0.5 10 -2.5
v 0.5 10 -3.5
v 2.5 0 8.5
v 2.5 0 7.5
v 2.5 0 -7.5
v 2.5 0 -8.5
v 2.5 1 8.5
v 2.5 1 7.5
v 2.5 1 -7.5
v 2.5 1 -8.5
v 2.5 13 6.5
v 2.5 13 5.5
v 2.5 13 4.5
v 2.5 13 3.5
v 2.5 13 -3.5
v 2.5 13 -4.5
v 2.5 13 -5.5
v 2.5 13 -6.5
v 2.5 14 6.5
v 2.5 14 5.5
v 2.5 14 4.5
v 2.5 14 3.5
v 2.5 14 -3.5
v 2.5 14 -4.5
v 2.5 14 -5.5
v 2.5 14 -6.5
v 3.5 12 6.5
v 3.5 12 5.5
v 3.5 12 4.5
v 3.5 12 3.5
v 3.5 12 -3.5
v 3.5 12 -4.5
v 3.5 12 -5.5
v 3.5 12 -6.5
v 3.5 13 6.5
v 3.5 13 5.5
v 3.5 13 4.5
v 3.5 13 3.5
v 3.5 13 -3.5
v 3.5 13 -4.5
v 3.5 13 -5.5
v 3.5 13 -6.5
v 4.5 0 7.5
v 4.5 0 6.5
v 4.5 0 -6.5
v 4.5 0 -7.5
v 4.5 1 7.5
v 4.5 1 6.5
v 4.5 1 5.5
v 4.5 1 4.5
v 4.5 1 3.5
v 4.5 1 -3.5
v 4.5 1 -4.5
v 4.5 1 -5.5
v 4.5 1 -6.5
v 4.5 1 -7.5
v 4.5 12 6.5
v 4.5 12 5.5
v 4.5 12 4.5
v 4.5 12 3.5
v 4.5 12 -3.5
v 4.5 12 -4.5
v 4.5 12 -5.5
v 4.5 12 -6.5
v 6.5 0 6.5
v 6.5 0 4.5
v 6.5 0 -4.5
v 6.5 0 -6.5
v 6.5 1 6.5
v 6.5 1 4.5
v 6.5 1 -4.5
v 6.5 1 -6.5
v 7.5 0 4.5
v 7.5 0 2.5
v 7.5 0 -2.5
v 7.5 0 -4.5
v 7.5 1 4.5
v 7.5 1 2.5
v 7.5 1 -2.5
v 7.5 1 -4.5
v 8.5 0 2.5
v 8.5 0 -2.5
v 8.5 1 2.5
v 8.5 1 -2.5
v -2.5 0 8.5
v -2.5 1 8.5
v 2.5 0 8.5
v 2.5 1 8.5
v -4.5 0 7.5
v -4.5 1 7.5
v -2.5 0 7.5
v -2.5 1 7.5
v 2.5 0 7.5
v 2.5 1 7.5
v 4.5 0 7.5
v 4.5 1 7.5
v -6.5 0 6.5
v -6.5 1 6.5
v -4.5 0 6.5
v -4.5 1 6.5
v -4.5 12 6.5
v -3.5 12 6.5
v -3.5 13 6.5
v -2.5 13 6.5
v -2.5 14 6.5
v 2.5 13 6.5
v 2.5 14 6.5
v 3.5 12 6.5
v 3.5 13 6.5
v 4.5 0 6.5
v 4.5 1 6.5
v 4.5 12 6.5
v 6.5 0 6.5
v 6.5 1 6.5
v -7.5 0 4.5
v -7.5 1 4.5
v -6.5 0 4.5
v -6.5 1 4.5
v 6.5 0 4.5
v 6.5 1 4.5
v 7.5 0 4.5
v 7.5 1 4.5
v -8.5 0 2.5
v -8.5 1 2.5
v -7.5 0 2.5
v -7.5 1 2.5
v 7.5 0 2.5
v 7.5 1 2.5
v 8.5 0 2.5
v 8.5 1 2.5
v -1.5 8 -2.5
v -1.5 10 -2.5
v 0.5 8 -2.5
v 0.5 10 -2.5
v -4.5 1 -3.5
v -4.5 12 -3.5
v -3.5 12 -3.5
v -3.5 13 -3.5
v -2.5 13 -3.5
v -2.5 14 -3.5
v -1.5 8 -3.5
v -1.5 10 -3.5
v 0.5 8 -3.5
v 0.5 10 -3.5
v 2.5 13 -3.5
v 2.5 14 -3.5
v 3.5 12 -3.5
v 3.5 13 -3.5
v 4.5 1 -3.5
v 4.5 12 -3.5
v -4.5 1 3.5
v -4.5 12 3.5
v -3.5 12 3.5
v -3.5 13 3.5
v -2.5 13 3.5
v -2.5 14 3.5
v -1.5 8 3.5
v -1.5 10 3.5
v 0.5 8 3.5
v 0.5 10 3.5
v 2.5 13 3.5
v 2.5 14 3.5
v 3.5 12 3.5
v 3.5 13 3.5
v 4.5 1 3.5
v 4.5 12 3.5
v -1.5 8 2.5
v -1.5 10 2.5
v 0.5 8 2.5
v 0.5 10 2.5
v -8.5 0 -2.5
v -8.5 1 -2.5
v -7.5 0 -2.5
v -7.5 1 -2.5
v 7.5 0 -2.5
v 7.5 1 -2.5
v 8.5 0 -2.5
v 8.5 1 -2.5
v -7.5 0 -4.5
v -7.5 1 -4.5
v -6.5 0 -4.5
v -6.5 1 -4.5
v 6.5 0 -4.5
v 6.5 1 -4.5
v 7.5 0 -4.5
v 7.5 1 -4.5
v -6.5 0 -6.5
v -6.5 1 -6.5
v -4.5 0 -6.5
v -4.5 1 -6.5
v -4.5 12 -6.5
v -3.5 12 -6.5
v -3.5 13 -6.5
v -2.5 13 -6.5
v -2.5 14 -6.5
v 2.5 13 -6.5
v 2.5 14 -6.5
v 3.5 12 -6.5
v 3.5 13 -6.5
v 4.5 0 -6.5
v 4.5 1 -6.5
v 4.5 12 -6.5
v 6.5 0 -6.5
v 6.5 1 -6.5
v -4.5 0 -7.5
v -4.5 1 -7.5
v -2.5 0 -7.5
v -2.5 1 -7.5
v 2.5 0 -7.5
v 2.5 1 -7.5
v 4.5 0 -7.5
v 4.5 1 -7.5
v -2.5 0 -8.5
v -2.5 1 -8.5
v 2.5 0 -8.5
v 2.5 1 -8.5
v -2.5 0 8.5
v 2.5 0 8.5
v -4.5 0 7.5
v -2.5 0 7.5
v 2.5 0 7.5
v 4.5 0 7.5
v -6.5 0 6.5
v -4.5 0 6.5
v 4.5 0 6.5
v 6.5 0 6.5
v -7.5 0 4.5
v -6.5 0 4.5
v 6.5 0 4.5
v 7.5 0 4.5
v -8.5 0 2.5
v -7.5 0 2.5
v 7.5 0 2.5
v 8.5 0 2.5
v -8.5 0 -2.5
v -7.5 0 -2.5
v 7.5 0 -2.5
v 8.5 0 -2.5
v -7.5 0 -4.5
v -6.5 0 -4.5
v 6.5 0 -4.5
v 7.5 0 -4.5
v -6.5 0 -6.5
v -4.5 0 -6.5
v 4.5 0 -6.5
v 6.5 0 -6.5
v -4.5 0 -7.5
v -2.5 0 -7.5
v 2.5 0 -7.5
v 4.5 0 -7.5
v -2.5 0 -8.5
v 2.5 0 -8.5
v -1.5 8 3.5
v 0.5 8 3.5
v -1.5 8 2.5
v 0.5 8 2.5
v -1.5 8 -2.5
v 0.5 8 -2.5
v -1.5 8 -3.5
v 0.5 8 -3.5
v -2.5 1 8.5
v 2.5 1 8.5
v -4.5 1 7.5
v -2.5 1 7.5
v 2.5 1 7.5
v 4.5 1 7.5
v -6.5 1 6.5
v -4.5 1 6.5
v 4.5 1 6.5
v 6.5 1 6.5
v -4.5 1 5.5
v 4.5 1 5.5
v -7.5 1 4.5
v -6.5 1 4.5
v -4.5 1 4.5
v 4.5 1 4.5
v 6.5 1 4.5
v 7.5 1 4.5
v -4.5 1 3.5
v 4.5 1 3.5
v -8.5 1 2.5
v -7.5 1 2.5
v 7.5 1 2.5
v 8.5 1 2.5
v -8.5 1 -2.5
v -7.5 1 -2.5
v 7.5 1 -2.5
v 8.5 1 -2.5
v -4.5 1 -3.5
v 4.5 1 -3.5
v -7.5 1 -4.5
v -6.5 1 -4.5
v -4.5 1 -4.5
v 4.5 1 -4.5
v 6.5 1 -4.5
v 7.5 1 -4.5
v -4.5 1 -5.5
v 4.5 1 -5.5
v -6.5 1 -6.5
v -4.5 1 -6.5
v 4.5 1 -6.5
v 6.5 1 -6.5
v -4.5 1 -7.5
v -2.5 1 -7.5
v 2.5 1 -7.5
v 4.5 1 -7.5
v -2.5 1 -8.5
v 2.5 1 -8.5
v -1.5 10 3.5
v 0.5 10 3.5
v -1.5 10 2.5
v 0.5 10 2.5
v -1.5 10 -2.5
v 0.5 10 -2.5
v -1.5 10 -3.5
v 0.5 10 -3.5
v -4.5 12 6.5
v -3.5 12 6.5
v 3.5 12 6.5
v 4.5 12 6.5
v -4.5 12 5.5
v -3.5 12 5.5
v 3.5 12 5.5
v 4.5 12 5.5
v -4.5 12 4.5
v -3.5 12 4.5
v 3.5 12 4.5
v 4.5 12 4.5
v -4.5 12 3.5
v -3.5 12 3.5
v 3.5 12 3.5
v 4.5 12 3.5
v -4.5 12 -3.5
v -3.5 12 -3.5
v 3.5 12 -3.5
v 4.5 12 -3.5
v -4.5 12 -4.5
v -3.5 12 -4.5
v 3.5 12 -4.5
v 4.5 12 -4.5
v -4.5 12 -5.5
v -3.5 12 -5.5
v 3.5 12 -5.5
v 4.5 12 -5.5
v -4.5 12 -6.5
v -3.5 12 -6.5
v 3.5 12 -6.5
v 4.5 12 -6.5
v -3.5 13 6.5
v -2.5 13 6.5
v 2.5 13 6.5
v 3.5 13 6.5
v -3.5 13 5.5
v -2.5 13 5.5
v 2.5 13 5.5
v 3.5 13 5.5
v -3.5 13 4.5
v -2.5 13 4.5
v 2.5 13 4.5
v 3.5 13 4.5
v -3.5 13 3.5
v -2.5 13 3.5
v 2.5 13 3.5
v 3.5 13 3.5
v -3.5 13 -3.5
v -2.5 13 -3.5
v 2.5 13 -3.5
v 3.5 13 -3.5
v -3.5 13 -4.5
v -2.5 13 -4.5
v 2.5 13 -4.5
v 3.5 13 -4.5
v -3.5 13 -5.5
v -2.5 13 -5.5
v 2.5 13 -5.5
v 3.5 13 -5.5
v -3.5 13 -6.5
v -2.5 13 -6.5
v 2.5 13 -6.5
v 3.5 13 -6.5
v -2.5 14 6.5
v 2.5 14 6.5
v -2.5 14 5.5
v 2.5 14 5.5
v -2.5 14 4.5
v 2.5 14 4.5
v -2.5 14 3.5
v 2.5 14 3.5
v -2.5 14 -3.5
v 2.5 14 -3.5
v -2.5 14 -4.5
v 2.5 14 -4.5
v -2.5 14 -5.5
v 2.5 14 -5.5
v -2.5 14 -6.5
v 2.5 14 -6.5

# faces
f 3/3/1 2/3/1 1/3/1
f 4/3/1 2/3/1 3/3/1
f 9/3/1 6/3/1 5/3/1
f 10/3/1 6/3/1 9/3/1
f 11/3/1 8/3/1 7/3/1
f 12/3/1 8/3/1 11/3/1
f 17/3/1 14/3/1 13/3/1
f 18/3/1 14/3/1 17/3/1
f 19/3/1 16/3/1 15/3/1
f 20/3/1 16/3/1 19/3/1
f 25/3/1 22/3/1 21/3/1
f 26/3/1 22/3/1 25/3/1
f 33/3/1 24/3/1 23/3/1
f 34/3/1 24/3/1 33/3/1
f 35/2/1 27/2/1 26/2/1
f 36/1/1 28/1/1 27/1/1
f 36/2/1 27/2/1 35/2/1
f 37/3/1 29/3/1 28/3/1
f 37/1/1 28/1/1 36/1/1
f 38/3/1 29/3/1 37/3/1
f 39/3/1 31/3/1 30/3/1
f 40/1/1 32/1/1 31/1/1
f 40/3/1 31/3/1 39/3/1
f 41/2/1 33/2/1 32/2/1
f 41/1/1 32/1/1 40/1/1
f 42/2/1 33/2/1 41/2/1
f 51/2/1 44/2/1 43/2/1
f 52/1/1 45/1/1 44/1/1
f 52/2/1 44/2/1 51/2/1
f 53/3/1 46/3/1 45/3/1
f 53/1/1 45/1/1 52/1/1
f 54/3/1 46/3/1 53/3/1
f 55/3/1 48/3/1 47/3/1
f 56/1/1 49/1/1 48/1/1
f 56/3/1 48/3/1 55/3/1
f 57/2/1 50/2/1 49/2/1
f 57/1/1 49/1/1 56/1/1
f 58/2/1 50/2/1 57/2/1
f 63/3/1 60/3/1 59/3/1
f 64/3/1 60/3/1 63/3/1
f 65/3/1 62/3/1 61/3/1
f 66/3/1 62/3/1 65/3/1
f 75/2/1 68/2/1 67/2/1
f 76/1/1 69/1/1 68/1/1
f 76/2/1 68/2/1 75/2/1
f 77/3/1 70/3/1 69/3/1
f 77/1/1 69/1/1 76/1/1
f 78/3/1 70/3/1 77/3/1
f 79/3/1 72/3/1 71/3/1
f 80/1/1 73/1/1 72/1/1
f 80/3/1 72/3/1 79/3/1
f 81/2/1 74/2/1 73/2/1
f 81/1/1 73/1/1 80/1/1
f 82/2/1 74/2/1 81/2/1
f 87/3/1 84/3/1 83/3/1
f 88/3/1 84/3/1 87/3/1
f 89/3/1 86/3/1 85/3/1
f 90/3/1 86/3/1 89/3/1
f 91/3/2 92/3/2 95/3/2
f 95/3/2 92/3/2 96/3/2
f 93/3/2 94/3/2 97/3/2
f 97/3/2 94/3/2 98/3/2
f 99/3/2 100/3/2 103/3/2
f 103/3/2 100/3/2 104/3/2
f 101/3/2 102/3/2 105/3/2
f 105/3/2 102/3/2 106/3/2
f 107/2/2 108/2/2 115/2/2
f 108/1/2 109/1/2 116/1/2
f 115/2/2 108/2/2 116/2/2
f 109/3/2 110/3/2 117/3/2
f 116/1/2 109/1/2 117/1/2
f 117/3/2 110/3/2 118/3/2
f 111/3/2 112/3/2 119/3/2
f 112/1/2 113/1/2 120/1/2
f 119/3/2 112/3/2 120/3/2
f 113/2/2 114/2/2 121/2/2
f 120/1/2 113/1/2 121/1/2
f 121/2/2 114/2/2 122/2/2
f 123/2/2 124/2/2 131/2/2
f 124/1/2 125/1/2 132/1/2
f 131/2/2 124/2/2 132/2/2
f 125/3/2 126/3/2 133/3/2
f 132/1/2 125/1/2 133/1/2
f 133/3/2 126/3/2 134/3/2
f 127/3/2 128/3/2 135/3/2
f 128/1/2 129/1/2 136/1/2
f 135/3/2 128/3/2 136/3/2
f 129/2/2 130/2/2 137/2/2
f 136/1/2 129/1/2 137/1/2
f 137/2/2 130/2/2 138/2/2
f 139/3/2 140/3/2 143/3/2
f 143/3/2 140/3/2 144/3/2
f 141/3/2 142/3/2 151/3/2
f 151/3/2 142/3/2 152/3/2
f 144/2/2 145/2/2 153/2/2
f 145/1/2 146/1/2 154/1/2
f 153/2/2 145/2/2 154/2/2
f 146/3/2 147/3/2 155/3/2
f 154/1/2 146/1/2 155/1/2
f 155/3/2 147/3/2 156/3/2
f 148/3/2 149/3/2 157/3/2
f 149/1/2 150/1/2 158/1/2
f 157/3/2 149/3/2 158/3/2
f 150/2/2 151/2/2 159/2/2
f 158/1/2 150/1/2 159/1/2
f 159/2/2 151/2/2 160/2/2
f 161/3/2 162/3/2 165/3/2
f 165/3/2 162/3/2 166/3/2
f 163/3/2 164/3/2 167/3/2
f 167/3/2 164/3/2 168/3/2
f 169/3/2 170/3/2 173/3/2
f 173/3/2 170/3/2 174/3/2
f 171/3/2 172/3/2 175/3/2
f 175/3/2 172/3/2 176/3/2
f 177/3/2 178/3/2 179/3/2
f 179/3/2 178/3/2 180/3/2
f 183/3/3 182/3/3 181/3/3
f 184/3/3 182/3/3 183/3/3
f 187/3/3 186/3/3 185/3/3
f 188/3/3 186/3/3 187/3/3
f 191/3/3 190/3/3 189/3/3
f 192/3/3 190/3/3 191/3/3
f 195/3/3 194/3/3 193/3/3
f 196/3/3 194/3/3 195/3/3
f 198/2/3 197/2/3 196/2/3
f 200/2/3 199/2/3 198/2/3
f 202/2/3 200/2/3 198/2/3
f 202/2/3 201/2/3 200/2/3
f 203/2/3 201/2/3 202/2/3
f 204/2/3 198/2/3 196/2/3
f 204/2/3 202/2/3 198/2/3
f 205/2/3 202/2/3 204/2/3
f 207/2/3 204/2/3 196/2/3
f 208/2/3 204/2/3 207/2/3
f 209/3/3 207/3/3 206/3/3
f 210/3/3 207/3/3 209/3/3
f 213/3/3 212/3/3 211/3/3
f 214/3/3 212/3/3 213/3/3
f 217/3/3 216/3/3 215/3/3
f 218/3/3 216/3/3 217/3/3
f 221/3/3 220/3/3 219/3/3
f 222/3/3 220/3/3 221/3/3
f 225/3/3 224/3/3 223/3/3
f 226/3/3 224/3/3 225/3/3
f 229/3/3 228/3/3 227/3/3
f 230/3/3 228/3/3 229/3/3
f 233/3/3 232/3/3 231/3/3
f 235/3/3 234/3/3 233/3/3
f 237/3/3 233/3/3 231/3/3
f 237/3/3 236/3/3 235/3/3
f 237/3/3 235/3/3 233/3/3
f 238/3/3 236/3/3 237/3/3
f 239/3/3 237/3/3 231/3/3
f 240/3/3 236/3/3 238/3/3
f 241/3/3 236/3/3 240/3/3
f 241/3/3 240/3/3 239/3/3
f 242/3/3 236/3/3 241/3/3
f 243/3/3 241/3/3 239/3/3
f 244/3/3 241/3/3 243/3/3
f 245/3/3 239/3/3 231/3/3
f 245/3/3 243/3/3 239/3/3
f 246/3/3 243/3/3 245/3/3
f 247/3/4 248/3/4 249/3/4
f 249/3/4 250/3/4 251/3/4
f 247/3/4 249/3/4 253/3/4
f 251/3/4 252/3/4 253/3/4
f 249/3/4 251/3/4 253/3/4
f 253/3/4 252/3/4 254/3/4
f 247/3/4 253/3/4 255/3/4
f 254/3/4 252/3/4 256/3/4
f 256/3/4 252/3/4 257/3/4
f 255/3/4 256/3/4 257/3/4
f 257/3/4 252/3/4 258/3/4
f 255/3/4 257/3/4 259/3/4
f 259/3/4 257/3/4 260/3/4
f 247/3/4 255/3/4 261/3/4
f 255/3/4 259/3/4 261/3/4
f 261/3/4 259/3/4 262/3/4
f 263/3/4 264/3/4 265/3/4
f 265/3/4 264/3/4 266/3/4
f 267/3/4 268/3/4 269/3/4
f 269/3/4 268/3/4 270/3/4
f 271/3/4 272/3/4 273/3/4
f 273/3/4 272/3/4 274/3/4
f 275/3/4 276/3/4 277/3/4
f 277/3/4 276/3/4 278/3/4
f 279/3/4 280/3/4 281/3/4
f 281/3/4 280/3/4 282/3/4
f 283/3/4 284/3/4 285/3/4
f 285/3/4 284/3/4 286/3/4
f 286/2/4 287/2/4 288/2/4
f 288/2/4 289/2/4 290/2/4
f 288/2/4 290/2/4 292/2/4
f 290/2/4 291/2/4 292/2/4
f 292/2/4 291/2/4 293/2/4
f 286/2/4 288/2/4 294/2/4
f 288/2/4 292/2/4 294/2/4
f 294/2/4 292/2/4 295/2/4
f 286/2/4 294/2/4 297/2/4
f 297/2/4 294/2/4 298/2/4
f 296/3/4 297/3/4 299/3/4
f 299/3/4 297/3/4 300/3/4
f 301/3/4 302/3/4 303/3/4
f 303/3/4 302/3/4 304/3/4
f 305/3/4 306/3/4 307/3/4
f 307/3/4 306/3/4 308/3/4
f 309/3/4 310/3/4 311/3/4
f 311/3/4 310/3/4 312/3/4
f 316/3/5 314/3/5 313/3/5
f 317/3/5 314/3/5 316/3/5
f 320/3/5 316/3/5 315/3/5
f 320/3/5 318/3/5 317/3/5
f 320/3/5 317/3/5 316/3/5
f 321/3/5 318/3/5 320/3/5
f 324/3/5 320/3/5 319/3/5
f 324/3/5 322/3/5 321/3/5
f 324/3/5 321/3/5 320/3/5
f 325/3/5 322/3/5 324/3/5
f 328/3/5 324/3/5 323/3/5
f 328/3/5 326/3/5 325/3/5
f 328/3/5 325/3/5 324/3/5
f 329/3/5 326/3/5 328/3/5
f 331/3/5 328/3/5 327/3/5
f 331/3/5 330/3/5 329/3/5
f 331/3/5 329/3/5 328/3/5
f 332/3/5 330/3/5 331/3/5
f 333/3/5 330/3/5 332/3/5
f 334/3/5 330/3/5 333/3/5
f 335/3/5 333/3/5 332/3/5
f 336/3/5 333/3/5 335/3/5
f 337/3/5 333/3/5 336/3/5
f 338/3/5 333/3/5 337/3/5
f 339/3/5 337/3/5 336/3/5
f 340/3/5 337/3/5 339/3/5
f 341/3/5 337/3/5 340/3/5
f 342/3/5 337/3/5 341/3/5
f 343/3/5 341/3/5 340/3/5
f 344/3/5 341/3/5 343/3/5
f 345/3/5 341/3/5 344/3/5
f 346/3/5 341/3/5 345/3/5
f 347/3/5 345/3/5 344/3/5
f 348/3/5 345/3/5 347/3/5
f 351/3/5 350/3/5 349/3/5
f 352/3/5 350/3/5 351/3/5
f 355/3/5 354/3/5 353/3/5
f 356/3/5 354/3/5 355/3/5
f 357/3/6 358/3/6 360/3/6
f 360/3/6 358/3/6 361/3/6
f 359/3/6 360/3/6 364/3/6
f 361/3/6 362/3/6 364/3/6
f 360/3/6 361/3/6 364/3/6
f 364/3/6 362/3/6 365/3/6
f 363/3/6 364/3/6 367/3/6
f 365/3/6 366/3/6 368/3/6
f 363/3/6 367/3/6 370/3/6
f 370/3/6 367/3/6 371/3/6
f 368/3/6 366/3/6 372/3/6
f 372/3/6 366/3/6 373/3/6
f 370/3/6 371/3/6 375/3/6
f 369/3/6 370/3/6 375/3/6
f 373/3/6 374/3/6 376/3/6
f 372/3/6 373/3/6 376/3/6
f 369/3/6 375/3/6 378/3/6
f 375/3/6 376/3/6 378/3/6
f 376/3/6 374/3/6 379/3/6
f 378/3/6 376/3/6 379/3/6
f 377/3/6 378/3/6 381/3/6
f 379/3/6 380/3/6 381/3/6
f 378/3/6 379/3/6 381/3/6
f 381/3/6 380/3/6 382/3/6
f 382/3/6 380/3/6 383/3/6
f 383/3/6 380/3/6 384/3/6
f 382/3/6 383/3/6 385/3/6
f 385/3/6 383/3/6 386/3/6
f 382/3/6 385/3/6 387/3/6
f 387/3/6 385/3/6 388/3/6
f 388/3/6 385/3/6 389/3/6
f 386/3/6 383/3/6 390/3/6
f 390/3/6 383/3/6 391/3/6
f 391/3/6 383/3/6 392/3/6
f 388/3/6 389/3/6 393/3/6
f 390/3/6 391/3/6 394/3/6
f 388/3/6 393/3/6 395/3/6
f 395/3/6 393/3/6 396/3/6
f 394/3/6 391/3/6 397/3/6
f 397/3/6 391/3/6 398/3/6
f 396/3/6 397/3/6 399/3/6
f 399/3/6 397/3/6 400/3/6
f 400/3/6 397/3/6 401/3/6
f 401/3/6 397/3/6 402/3/6
f 400/3/6 401/3/6 403/3/6
f 403/3/6 401/3/6 404/3/6
f 405/3/6 406/3/6 407/3/6
f 407/3/6 406/3/6 408/3/6
f 409/3/6 410/3/6 411/3/6
f 411/3/6 410/3/6 412/3/6
f 413/2/6 414/2/6 417/2/6
f 417/2/6 414/2/6 418/2/6
f 415/2/6 416/2/6 419/2/6
f 419/2/6 416/2/6 420/2/6
f 417/1/6 418/1/6 421/1/6
f 421/1/6 418/1/6 422/1/6
f 419/1/6 420/1/6 423/1/6
f 423/1/6 420/1/6 424/1/6
f 421/3/6 422/3/6 425/3/6
f 425/3/6 422/3/6 426/3/6
f 423/3/6 424/3/6 427/3/6
f 427/3/6 424/3/6 428/3/6
f 429/3/6 430/3/6 433/3/6
f 433/3/6 430/3/6 434/3/6
f 431/3/6 432/3/6 435/3/6
f 435/3/6 432/3/6 436/3/6
f 433/1/6 434/1/6 437/1/6
f 437/1/6 434/1/6 438/1/6
f 435/1/6 436/1/6 439/1/6
f 439/1/6 436/1/6 440/1/6
f 437/2/6 438/2/6 441/2/6
f 441/2/6 438/2/6 442/2/6
f 439/2/6 440/2/6 443/2/6
f 443/2/6 440/2/6 444/2/6
f 445/2/6 446/2/6 449/2/6
f 449/2/6 446/2/6 450/2/6
f 447/2/6 448/2/6 451/2/6
f 451/2/6 448/2/6 452/2/6
f 449/1/6 450/1/6 453/1/6
f 453/1/6 450/1/6 454/1/6
f 451/1/6 452/1/6 455/1/6
f 455/1/6 452/1/6 456/1/6
f 453/3/6 454/3/6 457/3/6
f 457/3/6 454/3/6 458/3/6
f 455/3/6 456/3/6 459/3/6
f 459/3/6 456/3/6 460/3/6
f 461/3/6 462/3/6 465/3/6
f 465/3/6 462/3/6 466/3/6
f 463/3/6 464/3/6 467/3/6
f 467/3/6 464/3/6 468/3/6
f 465/1/6 466/1/6 469/1/6
f 469/1/6 466/1/6 470/1/6
f 467/1/6 468/1/6 471/1/6
f 471/1/6 468/1/6 472/1/6
f 469/2/6 470/2/6 473/2/6
f 473/2/6 470/2/6 474/2/6
f 471/2/6 472/2/6 475/2/6
f 475/2/6 472/2/6 476/2/6
f 477/2/6 478/2/6 479/2/6
f 479/2/6 478/2/6 480/2/6
f 479/1/6 480/1/6 481/1/6
f 481/1/6 480/1/6 482/1/6
f 481/3/6 482/3/6 483/3/6
f 483/3/6 482/3/6 484/3/6
f 485/3/6 486/3/6 487/3/6
f 487/3/6 486/3/6 488/3/6
f 487/1/6 488/1/6 489/1/6
f 489/1/6 488/1/6 490/1/6
f 489/2/6 490/2/6 491/2/6
f 491/2/6 490/2/6 492/2/6
