# MagicaVoxel @ Ephtracy

# group
g Turrets-1

# material
mtllib Turrets-1.mtl
usemtl palette

# normals
vn -1 0 0
vn 1 0 0
vn 0 0 1
vn 0 0 -1
vn 0 -1 0
vn 0 1 0

# texcoords
vt 0.962891 0.5
vt 0.982422 0.5
vt 0.990234 0.5
vt 0.994141 0.5

# verts
v -5 7 1
v -5 7 -1
v -5 9 1
v -5 9 -1
v -4 0 1
v -4 0 -1
v -4 4 2
v -4 4 1
v -4 4 -1
v -4 4 -2
v -4 5 3
v -4 5 2
v -4 5 -2
v -4 5 -3
v -4 6 4
v -4 6 3
v -4 6 -3
v -4 6 -4
v -4 7 1
v -4 7 -1
v -4 9 1
v -4 9 -1
v -4 16 4
v -4 16 3
v -4 16 2
v -4 16 -2
v -4 16 -3
v -4 16 -4
v -4 27 2
v -4 27 -2
v -3 0 3
v -3 0 1
v -3 0 -1
v -3 0 -3
v -3 4 2
v -3 4 1
v -3 4 -1
v -3 4 -2
v -3 5 4
v -3 5 3
v -3 5 2
v -3 5 -2
v -3 5 -3
v -3 5 -4
v -3 6 4
v -3 6 3
v -3 6 -3
v -3 6 -4
v -3 16 3
v -3 16 2
v -3 16 -2
v -3 16 -3
v -3 27 3
v -3 27 2
v -3 27 -2
v -3 27 -3
v -2 4 4
v -2 4 3
v -2 4 -3
v -2 4 -4
v -2 5 4
v -2 5 3
v -2 5 -3
v -2 5 -4
v -2 16 4
v -2 16 3
v -2 16 -3
v -2 16 -4
v -2 27 4
v -2 27 3
v -2 27 -3
v -2 27 -4
v -1 0 4
v -1 0 3
v -1 0 -3
v -1 0 -4
v -1 4 4
v -1 4 3
v -1 4 -3
v -1 4 -4
v 2 16 2
v 2 16 -2
v 2 27 2
v 2 27 -2
v -2 16 2
v -2 16 -2
v -2 27 2
v -2 27 -2
v 1 0 4
v 1 0 3
v 1 0 -3
v 1 0 -4
v 1 4 4
v 1 4 3
v 1 4 -3
v 1 4 -4
v 2 4 4
v 2 4 3
v 2 4 -3
v 2 4 -4
v 2 5 4
v 2 5 3
v 2 5 -3
v 2 5 -4
v 2 16 4
v 2 16 3
v 2 16 -3
v 2 16 -4
v 2 27 4
v 2 27 3
v 2 27 -3
v 2 27 -4
v 3 0 3
v 3 0 1
v 3 0 -1
v 3 0 -3
v 3 4 2
v 3 4 1
v 3 4 -1
v 3 4 -2
v 3 5 4
v 3 5 3
v 3 5 2
v 3 5 -2
v 3 5 -3
v 3 5 -4
v 3 6 4
v 3 6 3
v 3 6 -3
v 3 6 -4
v 3 16 3
v 3 16 2
v 3 16 -2
v 3 16 -3
v 3 27 3
v 3 27 2
v 3 27 -2
v 3 27 -3
v 4 0 1
v 4 0 -1
v 4 4 2
v 4 4 1
v 4 4 -1
v 4 4 -2
v 4 5 3
v 4 5 2
v 4 5 -2
v 4 5 -3
v 4 6 4
v 4 6 3
v 4 6 -3
v 4 6 -4
v 4 7 1
v 4 7 -1
v 4 9 1
v 4 9 -1
v 4 16 4
v 4 16 3
v 4 16 2
v 4 16 -2
v 4 16 -3
v 4 16 -4
v 4 27 2
v 4 27 -2
v 5 7 1
v 5 7 -1
v 5 9 1
v 5 9 -1
v -4 6 4
v -4 16 4
v -3 5 4
v -3 6 4
v -3 16 4
v -2 4 4
v -2 5 4
v -2 16 4
v -2 27 4
v -1 0 4
v -1 4 4
v 1 0 4
v 1 4 4
v 2 4 4
v 2 5 4
v 2 16 4
v 2 27 4
v 3 5 4
v 3 6 4
v 3 16 4
v 4 6 4
v 4 16 4
v -4 5 3
v -4 6 3
v -3 0 3
v -3 5 3
v -3 6 3
v -3 16 3
v -3 27 3
v -2 4 3
v -2 5 3
v -2 16 3
v -2 27 3
v -1 0 3
v -1 4 3
v 1 0 3
v 1 4 3
v 2 4 3
v 2 5 3
v 2 16 3
v 2 27 3
v 3 0 3
v 3 5 3
v 3 6 3
v 3 16 3
v 3 27 3
v 4 5 3
v 4 6 3
v -4 4 2
v -4 5 2
v -4 16 2
v -4 27 2
v -3 4 2
v -3 5 2
v -3 16 2
v -3 27 2
v 3 4 2
v 3 5 2
v 3 16 2
v 3 27 2
v 4 4 2
v 4 5 2
v 4 16 2
v 4 27 2
v -5 7 1
v -5 9 1
v -4 0 1
v -4 4 1
v -4 7 1
v -4 9 1
v -3 0 1
v -3 4 1
v 3 0 1
v 3 4 1
v 4 0 1
v 4 4 1
v 4 7 1
v 4 9 1
v 5 7 1
v 5 9 1
v -2 16 -2
v -2 27 -2
v 2 16 -2
v 2 27 -2
v -2 16 2
v -2 27 2
v 2 16 2
v 2 27 2
v -5 7 -1
v -5 9 -1
v -4 0 -1
v -4 4 -1
v -4 7 -1
v -4 9 -1
v -3 0 -1
v -3 4 -1
v 3 0 -1
v 3 4 -1
v 4 0 -1
v 4 4 -1
v 4 7 -1
v 4 9 -1
v 5 7 -1
v 5 9 -1
v -4 4 -2
v -4 5 -2
v -4 16 -2
v -4 27 -2
v -3 4 -2
v -3 5 -2
v -3 16 -2
v -3 27 -2
v 3 4 -2
v 3 5 -2
v 3 16 -2
v 3 27 -2
v 4 4 -2
v 4 5 -2
v 4 16 -2
v 4 27 -2
v -4 5 -3
v -4 6 -3
v -3 0 -3
v -3 5 -3
v -3 6 -3
v -3 16 -3
v -3 27 -3
v -2 4 -3
v -2 5 -3
v -2 16 -3
v -2 27 -3
v -1 0 -3
v -1 4 -3
v 1 0 -3
v 1 4 -3
v 2 4 -3
v 2 5 -3
v 2 16 -3
v 2 27 -3
v 3 0 -3
v 3 5 -3
v 3 6 -3
v 3 16 -3
v 3 27 -3
v 4 5 -3
v 4 6 -3
v -4 6 -4
v -4 16 -4
v -3 5 -4
v -3 6 -4
v -3 16 -4
v -2 4 -4
v -2 5 -4
v -2 16 -4
v -2 27 -4
v -1 0 -4
v -1 4 -4
v 1 0 -4
v 1 4 -4
v 2 4 -4
v 2 5 -4
v 2 16 -4
v 2 27 -4
v 3 5 -4
v 3 6 -4
v 3 16 -4
v 4 6 -4
v 4 16 -4
v -1 0 4
v 1 0 4
v -3 0 3
v -1 0 3
v 1 0 3
v 3 0 3
v -2 0 2
v -1 0 2
v 1 0 2
v 2 0 2
v -4 0 1
v -3 0 1
v -2 0 1
v 2 0 1
v 3 0 1
v 4 0 1
v -4 0 -1
v -3 0 -1
v -2 0 -1
v 2 0 -1
v 3 0 -1
v 4 0 -1
v -2 0 -2
v -1 0 -2
v 1 0 -2
v 2 0 -2
v -3 0 -3
v -1 0 -3
v 1 0 -3
v 3 0 -3
v -1 0 -4
v 1 0 -4
v -2 4 4
v -1 4 4
v 1 4 4
v 2 4 4
v -2 4 3
v -1 4 3
v 1 4 3
v 2 4 3
v -4 4 2
v -3 4 2
v 3 4 2
v 4 4 2
v -4 4 1
v -3 4 1
v 3 4 1
v 4 4 1
v -4 4 -1
v -3 4 -1
v 3 4 -1
v 4 4 -1
v -4 4 -2
v -3 4 -2
v 3 4 -2
v 4 4 -2
v -2 4 -3
v -1 4 -3
v 1 4 -3
v 2 4 -3
v -2 4 -4
v -1 4 -4
v 1 4 -4
v 2 4 -4
v -3 5 4
v -2 5 4
v 2 5 4
v 3 5 4
v -4 5 3
v -3 5 3
v -2 5 3
v 2 5 3
v 3 5 3
v 4 5 3
v -4 5 2
v -3 5 2
v 3 5 2
v 4 5 2
v -4 5 -2
v -3 5 -2
v 3 5 -2
v 4 5 -2
v -4 5 -3
v -3 5 -3
v -2 5 -3
v 2 5 -3
v 3 5 -3
v 4 5 -3
v -3 5 -4
v -2 5 -4
v 2 5 -4
v 3 5 -4
v -4 6 4
v -3 6 4
v 3 6 4
v 4 6 4
v -4 6 3
v -3 6 3
v 3 6 3
v 4 6 3
v -4 6 -3
v -3 6 -3
v 3 6 -3
v 4 6 -3
v -4 6 -4
v -3 6 -4
v 3 6 -4
v 4 6 -4
v -5 7 1
v -4 7 1
v 4 7 1
v 5 7 1
v -5 7 -1
v -4 7 -1
v 4 7 -1
v 5 7 -1
v -5 9 1
v -4 9 1
v 4 9 1
v 5 9 1
v -5 9 -1
v -4 9 -1
v 4 9 -1
v 5 9 -1
v -4 16 4
v -3 16 4
v -2 16 4
v 2 16 4
v 3 16 4
v 4 16 4
v -4 16 3
v -3 16 3
v -2 16 3
v 2 16 3
v 3 16 3
v 4 16 3
v -4 16 2
v -3 16 2
v -2 16 2
v 2 16 2
v 3 16 2
v 4 16 2
v -4 16 -2
v -3 16 -2
v -2 16 -2
v 2 16 -2
v 3 16 -2
v 4 16 -2
v -4 16 -3
v -3 16 -3
v -2 16 -3
v 2 16 -3
v 3 16 -3
v 4 16 -3
v -4 16 -4
v -3 16 -4
v -2 16 -4
v 2 16 -4
v 3 16 -4
v 4 16 -4
v -2 27 4
v 2 27 4
v -3 27 3
v -2 27 3
v 2 27 3
v 3 27 3
v -4 27 2
v -3 27 2
v -2 27 2
v 2 27 2
v 3 27 2
v 4 27 2
v -4 27 -2
v -3 27 -2
v -2 27 -2
v 2 27 -2
v 3 27 -2
v 4 27 -2
v -3 27 -3
v -2 27 -3
v 2 27 -3
v 3 27 -3
v -2 27 -4
v 2 27 -4

# faces
f 3/4/1 2/4/1 1/4/1
f 4/4/1 2/4/1 3/4/1
f 8/2/1 6/2/1 5/2/1
f 9/2/1 6/2/1 8/2/1
f 12/2/1 8/2/1 7/2/1
f 12/2/1 10/2/1 9/2/1
f 12/2/1 9/2/1 8/2/1
f 13/2/1 10/2/1 12/2/1
f 16/2/1 12/2/1 11/2/1
f 16/2/1 14/2/1 13/2/1
f 16/2/1 13/2/1 12/2/1
f 17/2/1 14/2/1 16/2/1
f 19/2/1 17/2/1 16/2/1
f 20/2/1 17/2/1 19/2/1
f 21/2/1 19/2/1 16/2/1
f 22/2/1 17/2/1 20/2/1
f 23/3/1 16/3/1 15/3/1
f 24/2/1 22/2/1 21/2/1
f 24/3/1 16/3/1 23/3/1
f 24/2/1 21/2/1 16/2/1
f 25/2/1 22/2/1 24/2/1
f 26/2/1 17/2/1 22/2/1
f 26/2/1 22/2/1 25/2/1
f 27/3/1 18/3/1 17/3/1
f 27/2/1 17/2/1 26/2/1
f 28/3/1 18/3/1 27/3/1
f 29/3/1 26/3/1 25/3/1
f 30/3/1 26/3/1 29/3/1
f 35/1/1 32/1/1 31/1/1
f 36/1/1 32/1/1 35/1/1
f 37/1/1 34/1/1 33/1/1
f 38/1/1 34/1/1 37/1/1
f 40/1/1 35/1/1 31/1/1
f 41/1/1 35/1/1 40/1/1
f 42/1/1 34/1/1 38/1/1
f 43/1/1 34/1/1 42/1/1
f 45/2/1 40/2/1 39/2/1
f 46/2/1 40/2/1 45/2/1
f 47/2/1 44/2/1 43/2/1
f 48/2/1 44/2/1 47/2/1
f 53/3/1 50/3/1 49/3/1
f 54/3/1 50/3/1 53/3/1
f 55/3/1 52/3/1 51/3/1
f 56/3/1 52/3/1 55/3/1
f 61/2/1 58/2/1 57/2/1
f 62/2/1 58/2/1 61/2/1
f 63/2/1 60/2/1 59/2/1
f 64/2/1 60/2/1 63/2/1
f 69/3/1 66/3/1 65/3/1
f 70/3/1 66/3/1 69/3/1
f 71/3/1 68/3/1 67/3/1
f 72/3/1 68/3/1 71/3/1
f 77/2/1 74/2/1 73/2/1
f 78/2/1 74/2/1 77/2/1
f 79/2/1 76/2/1 75/2/1
f 80/2/1 76/2/1 79/2/1
f 83/3/1 82/3/1 81/3/1
f 84/3/1 82/3/1 83/3/1
f 85/3/2 86/3/2 87/3/2
f 87/3/2 86/3/2 88/3/2
f 89/2/2 90/2/2 93/2/2
f 93/2/2 90/2/2 94/2/2
f 91/2/2 92/2/2 95/2/2
f 95/2/2 92/2/2 96/2/2
f 97/2/2 98/2/2 101/2/2
f 101/2/2 98/2/2 102/2/2
f 99/2/2 100/2/2 103/2/2
f 103/2/2 100/2/2 104/2/2
f 105/3/2 106/3/2 109/3/2
f 109/3/2 106/3/2 110/3/2
f 107/3/2 108/3/2 111/3/2
f 111/3/2 108/3/2 112/3/2
f 113/1/2 114/1/2 117/1/2
f 117/1/2 114/1/2 118/1/2
f 115/1/2 116/1/2 119/1/2
f 119/1/2 116/1/2 120/1/2
f 113/1/2 117/1/2 122/1/2
f 122/1/2 117/1/2 123/1/2
f 120/1/2 116/1/2 124/1/2
f 124/1/2 116/1/2 125/1/2
f 121/2/2 122/2/2 127/2/2
f 127/2/2 122/2/2 128/2/2
f 125/2/2 126/2/2 129/2/2
f 129/2/2 126/2/2 130/2/2
f 131/3/2 132/3/2 135/3/2
f 135/3/2 132/3/2 136/3/2
f 133/3/2 134/3/2 137/3/2
f 137/3/2 134/3/2 138/3/2
f 139/2/2 140/2/2 142/2/2
f 142/2/2 140/2/2 143/2/2
f 141/2/2 142/2/2 146/2/2
f 143/2/2 144/2/2 146/2/2
f 142/2/2 143/2/2 146/2/2
f 146/2/2 144/2/2 147/2/2
f 145/2/2 146/2/2 150/2/2
f 147/2/2 148/2/2 150/2/2
f 146/2/2 147/2/2 150/2/2
f 150/2/2 148/2/2 151/2/2
f 150/2/2 151/2/2 153/2/2
f 153/2/2 151/2/2 154/2/2
f 150/2/2 153/2/2 155/2/2
f 154/2/2 151/2/2 156/2/2
f 149/3/2 150/3/2 157/3/2
f 155/2/2 156/2/2 158/2/2
f 157/3/2 150/3/2 158/3/2
f 150/2/2 155/2/2 158/2/2
f 158/2/2 156/2/2 159/2/2
f 156/2/2 151/2/2 160/2/2
f 159/2/2 156/2/2 160/2/2
f 151/3/2 152/3/2 161/3/2
f 160/2/2 151/2/2 161/2/2
f 161/3/2 152/3/2 162/3/2
f 159/3/2 160/3/2 163/3/2
f 163/3/2 160/3/2 164/3/2
f 165/4/2 166/4/2 167/4/2
f 167/4/2 166/4/2 168/4/2
f 172/3/3 170/3/3 169/3/3
f 173/3/3 170/3/3 172/3/3
f 175/2/3 172/2/3 171/2/3
f 175/2/3 173/2/3 172/2/3
f 176/2/3 173/2/3 175/2/3
f 179/2/3 176/2/3 175/2/3
f 179/2/3 175/2/3 174/2/3
f 180/2/3 179/2/3 178/2/3
f 181/2/3 176/2/3 179/2/3
f 181/2/3 179/2/3 180/2/3
f 182/2/3 176/2/3 181/2/3
f 183/2/3 176/2/3 182/2/3
f 184/3/3 177/3/3 176/3/3
f 184/2/3 176/2/3 183/2/3
f 185/3/3 177/3/3 184/3/3
f 186/2/3 184/2/3 183/2/3
f 187/2/3 184/2/3 186/2/3
f 188/2/3 184/2/3 187/2/3
f 189/3/3 188/3/3 187/3/3
f 190/3/3 188/3/3 189/3/3
f 194/2/3 192/2/3 191/2/3
f 195/2/3 192/2/3 194/2/3
f 198/1/3 194/1/3 193/1/3
f 199/1/3 194/1/3 198/1/3
f 200/3/3 197/3/3 196/3/3
f 201/3/3 197/3/3 200/3/3
f 202/1/3 198/1/3 193/1/3
f 203/1/3 198/1/3 202/1/3
f 206/1/3 205/1/3 204/1/3
f 210/1/3 206/1/3 204/1/3
f 210/1/3 207/1/3 206/1/3
f 211/1/3 207/1/3 210/1/3
f 213/3/3 209/3/3 208/3/3
f 214/3/3 209/3/3 213/3/3
f 215/2/3 212/2/3 211/2/3
f 216/2/3 212/2/3 215/2/3
f 221/2/3 218/2/3 217/2/3
f 222/2/3 218/2/3 221/2/3
f 223/3/3 220/3/3 219/3/3
f 224/3/3 220/3/3 223/3/3
f 229/2/3 226/2/3 225/2/3
f 230/2/3 226/2/3 229/2/3
f 231/3/3 228/3/3 227/3/3
f 232/3/3 228/3/3 231/3/3
f 237/4/3 234/4/3 233/4/3
f 238/4/3 234/4/3 237/4/3
f 239/2/3 236/2/3 235/2/3
f 240/2/3 236/2/3 239/2/3
f 243/2/3 242/2/3 241/2/3
f 244/2/3 242/2/3 243/2/3
f 247/4/3 246/4/3 245/4/3
f 248/4/3 246/4/3 247/4/3
f 251/3/3 250/3/3 249/3/3
f 252/3/3 250/3/3 251/3/3
f 253/3/4 254/3/4 255/3/4
f 255/3/4 254/3/4 256/3/4
f 257/4/4 258/4/4 261/4/4
f 261/4/4 258/4/4 262/4/4
f 259/2/4 260/2/4 263/2/4
f 263/2/4 260/2/4 264/2/4
f 265/2/4 266/2/4 267/2/4
f 267/2/4 266/2/4 268/2/4
f 269/4/4 270/4/4 271/4/4
f 271/4/4 270/4/4 272/4/4
f 273/2/4 274/2/4 277/2/4
f 277/2/4 274/2/4 278/2/4
f 275/3/4 276/3/4 279/3/4
f 279/3/4 276/3/4 280/3/4
f 281/2/4 282/2/4 285/2/4
f 285/2/4 282/2/4 286/2/4
f 283/3/4 284/3/4 287/3/4
f 287/3/4 284/3/4 288/3/4
f 289/2/4 290/2/4 292/2/4
f 292/2/4 290/2/4 293/2/4
f 291/1/4 292/1/4 296/1/4
f 296/1/4 292/1/4 297/1/4
f 294/3/4 295/3/4 298/3/4
f 298/3/4 295/3/4 299/3/4
f 291/1/4 296/1/4 300/1/4
f 300/1/4 296/1/4 301/1/4
f 302/1/4 303/1/4 304/1/4
f 302/1/4 304/1/4 308/1/4
f 304/1/4 305/1/4 308/1/4
f 308/1/4 305/1/4 309/1/4
f 306/3/4 307/3/4 311/3/4
f 311/3/4 307/3/4 312/3/4
f 309/2/4 310/2/4 313/2/4
f 313/2/4 310/2/4 314/2/4
f 315/3/4 316/3/4 318/3/4
f 318/3/4 316/3/4 319/3/4
f 317/2/4 318/2/4 321/2/4
f 318/2/4 319/2/4 321/2/4
f 321/2/4 319/2/4 322/2/4
f 321/2/4 322/2/4 325/2/4
f 320/2/4 321/2/4 325/2/4
f 324/2/4 325/2/4 326/2/4
f 325/2/4 322/2/4 327/2/4
f 326/2/4 325/2/4 327/2/4
f 327/2/4 322/2/4 328/2/4
f 328/2/4 322/2/4 329/2/4
f 322/3/4 323/3/4 330/3/4
f 329/2/4 322/2/4 330/2/4
f 330/3/4 323/3/4 331/3/4
f 329/2/4 330/2/4 332/2/4
f 332/2/4 330/2/4 333/2/4
f 333/2/4 330/2/4 334/2/4
f 333/3/4 334/3/4 335/3/4
f 335/3/4 334/3/4 336/3/4
f 340/2/5 338/2/5 337/2/5
f 341/2/5 338/2/5 340/2/5
f 343/1/5 340/1/5 339/1/5
f 344/2/5 341/2/5 340/2/5
f 344/1/5 340/1/5 343/1/5
f 345/1/5 342/1/5 341/1/5
f 345/2/5 341/2/5 344/2/5
f 346/1/5 342/1/5 345/1/5
f 348/1/5 343/1/5 339/1/5
f 349/2/5 344/2/5 343/2/5
f 349/2/5 345/2/5 344/2/5
f 349/1/5 343/1/5 348/1/5
f 349/2/5 346/2/5 345/2/5
f 350/1/5 342/1/5 346/1/5
f 350/2/5 346/2/5 349/2/5
f 351/1/5 342/1/5 350/1/5
f 353/2/5 348/2/5 347/2/5
f 353/2/5 352/2/5 351/2/5
f 353/2/5 351/2/5 350/2/5
f 353/2/5 350/2/5 349/2/5
f 353/2/5 349/2/5 348/2/5
f 354/2/5 352/2/5 353/2/5
f 355/2/5 352/2/5 354/2/5
f 356/2/5 352/2/5 355/2/5
f 357/2/5 352/2/5 356/2/5
f 358/2/5 352/2/5 357/2/5
f 359/1/5 355/1/5 354/1/5
f 359/2/5 356/2/5 355/2/5
f 360/2/5 356/2/5 359/2/5
f 361/2/5 356/2/5 360/2/5
f 362/1/5 357/1/5 356/1/5
f 362/2/5 356/2/5 361/2/5
f 363/1/5 359/1/5 354/1/5
f 363/1/5 360/1/5 359/1/5
f 364/2/5 361/2/5 360/2/5
f 364/1/5 360/1/5 363/1/5
f 365/1/5 362/1/5 361/1/5
f 365/2/5 361/2/5 364/2/5
f 366/1/5 357/1/5 362/1/5
f 366/1/5 362/1/5 365/1/5
f 367/2/5 365/2/5 364/2/5
f 368/2/5 365/2/5 367/2/5
f 373/2/5 370/2/5 369/2/5
f 374/2/5 370/2/5 373/2/5
f 375/2/5 372/2/5 371/2/5
f 376/2/5 372/2/5 375/2/5
f 381/2/5 378/2/5 377/2/5
f 382/2/5 378/2/5 381/2/5
f 383/2/5 380/2/5 379/2/5
f 384/2/5 380/2/5 383/2/5
f 389/2/5 386/2/5 385/2/5
f 390/2/5 386/2/5 389/2/5
f 391/2/5 388/2/5 387/2/5
f 392/2/5 388/2/5 391/2/5
f 397/2/5 394/2/5 393/2/5
f 398/2/5 394/2/5 397/2/5
f 399/2/5 396/2/5 395/2/5
f 400/2/5 396/2/5 399/2/5
f 406/2/5 402/2/5 401/2/5
f 407/2/5 402/2/5 406/2/5
f 408/2/5 404/2/5 403/2/5
f 409/2/5 404/2/5 408/2/5
f 411/2/5 406/2/5 405/2/5
f 412/2/5 406/2/5 411/2/5
f 413/2/5 410/2/5 409/2/5
f 414/2/5 410/2/5 413/2/5
f 419/2/5 416/2/5 415/2/5
f 420/2/5 416/2/5 419/2/5
f 423/2/5 418/2/5 417/2/5
f 424/2/5 418/2/5 423/2/5
f 425/2/5 421/2/5 420/2/5
f 426/2/5 421/2/5 425/2/5
f 427/2/5 423/2/5 422/2/5
f 428/2/5 423/2/5 427/2/5
f 433/3/5 430/3/5 429/3/5
f 434/3/5 430/3/5 433/3/5
f 435/3/5 432/3/5 431/3/5
f 436/3/5 432/3/5 435/3/5
f 441/3/5 438/3/5 437/3/5
f 442/3/5 438/3/5 441/3/5
f 443/3/5 440/3/5 439/3/5
f 444/3/5 440/3/5 443/3/5
f 449/4/5 446/4/5 445/4/5
f 450/4/5 446/4/5 449/4/5
f 451/4/5 448/4/5 447/4/5
f 452/4/5 448/4/5 451/4/5
f 453/4/6 454/4/6 457/4/6
f 457/4/6 454/4/6 458/4/6
f 455/4/6 456/4/6 459/4/6
f 459/4/6 456/4/6 460/4/6
f 461/3/6 462/3/6 467/3/6
f 462/2/6 463/2/6 468/2/6
f 467/3/6 462/3/6 468/3/6
f 468/2/6 463/2/6 469/2/6
f 464/2/6 465/2/6 470/2/6
f 465/3/6 466/3/6 471/3/6
f 470/2/6 465/2/6 471/2/6
f 471/3/6 466/3/6 472/3/6
f 467/2/6 468/2/6 473/2/6
f 473/2/6 468/2/6 474/2/6
f 471/2/6 472/2/6 477/2/6
f 477/2/6 472/2/6 478/2/6
f 475/2/6 476/2/6 481/2/6
f 481/2/6 476/2/6 482/2/6
f 479/2/6 480/2/6 485/2/6
f 485/2/6 480/2/6 486/2/6
f 483/2/6 484/2/6 489/2/6
f 489/2/6 484/2/6 490/2/6
f 485/3/6 486/3/6 491/3/6
f 486/2/6 487/2/6 492/2/6
f 491/3/6 486/3/6 492/3/6
f 492/2/6 487/2/6 493/2/6
f 488/2/6 489/2/6 494/2/6
f 489/3/6 490/3/6 495/3/6
f 494/2/6 489/2/6 495/2/6
f 495/3/6 490/3/6 496/3/6
f 497/3/6 498/3/6 500/3/6
f 500/3/6 498/3/6 501/3/6
f 499/3/6 500/3/6 504/3/6
f 501/3/6 502/3/6 504/3/6
f 500/3/6 501/3/6 504/3/6
f 504/3/6 502/3/6 505/3/6
f 505/3/6 502/3/6 506/3/6
f 506/3/6 502/3/6 507/3/6
f 503/3/6 504/3/6 509/3/6
f 504/3/6 505/3/6 509/3/6
f 509/3/6 505/3/6 510/3/6
f 510/3/6 505/3/6 511/3/6
f 507/3/6 508/3/6 512/3/6
f 506/3/6 507/3/6 512/3/6
f 512/3/6 508/3/6 513/3/6
f 513/3/6 508/3/6 514/3/6
f 510/3/6 511/3/6 515/3/6
f 512/3/6 513/3/6 515/3/6
f 511/3/6 512/3/6 515/3/6
f 515/3/6 513/3/6 516/3/6
f 516/3/6 513/3/6 517/3/6
f 517/3/6 513/3/6 518/3/6
f 516/3/6 517/3/6 519/3/6
f 519/3/6 517/3/6 520/3/6
